M48
; DRILL file {KiCad 8.0.5} date 2025-01-07T17:40:30+0100
; FORMAT={-:-/ absolute / inch / decimal}
; #@! TF.CreationDate,2025-01-07T17:40:30+01:00
; #@! TF.GenerationSoftware,Kicad,Pcbnew,8.0.5
; #@! TF.FileFunction,Plated,1,2,PTH
FMAT,2
INCH
; #@! TA.AperFunction,Plated,PTH,ViaDrill
T1C0.0118
; #@! TA.AperFunction,Plated,PTH,ViaDrill
T2C0.0217
; #@! TA.AperFunction,Plated,PTH,ViaDrill
T3C0.0315
; #@! TA.AperFunction,Plated,PTH,ComponentDrill
T4C0.0394
; #@! TA.AperFunction,Plated,PTH,ComponentDrill
T5C0.0409
; #@! TA.AperFunction,Plated,PTH,ComponentDrill
T6C0.0488
; #@! TA.AperFunction,Plated,PTH,ComponentDrill
T7C0.0520
%
G90
G05
T1
X5.5276Y-3.4756
X5.5469Y-3.162
X5.6612Y-3.3961
X5.7441Y-4.1165
X5.8461Y-3.0765
X5.8508Y-2.8359
X5.8665Y-3.1184
X5.8889Y-3.0453
X5.9291Y-3.5071
X6.1417Y-3.7748
X6.1763Y-2.8393
X6.5906Y-4.3417
X6.6378Y-3.7354
X6.7301Y-3.9223
T2
X6.2362Y-4.011
T3
X6.0315Y-3.5307
X6.4252Y-3.7354
X6.5976Y-3.6803
T4
X6.0992Y-4.2877
X6.1992Y-4.2877
X6.2992Y-4.2877
X6.3992Y-4.2877
X6.4992Y-4.2877
T5
X4.7878Y-2.9732
X4.7878Y-3.0732
X4.7878Y-3.1732
X4.7878Y-3.2732
X4.7878Y-3.3732
X4.7878Y-3.4732
X4.7878Y-3.5732
X4.7878Y-3.6732
X4.7878Y-3.7732
X4.7878Y-3.8732
X4.7878Y-3.9732
X4.7878Y-4.0732
X4.7878Y-4.1732
X4.7878Y-4.2732
X4.7878Y-4.3732
X4.7878Y-4.4732
X4.7878Y-4.5732
X4.7878Y-4.6732
X4.7878Y-4.7732
X5.7878Y-2.9732
X5.7878Y-3.0732
X5.7878Y-3.1732
X5.7878Y-3.2732
X5.7878Y-3.3732
X5.7878Y-3.4732
X5.7878Y-3.5732
X5.7878Y-3.6732
X5.7878Y-3.7732
X5.7878Y-3.8732
X5.7878Y-3.9732
X5.7878Y-4.0732
X5.7878Y-4.1732
X5.7878Y-4.2732
X5.7878Y-4.3732
X5.7878Y-4.4732
X5.7878Y-4.5732
X5.7878Y-4.6732
X5.7878Y-4.7732
T6
X6.0362Y-3.6803
X6.1362Y-3.6803
X6.2362Y-3.6803
T7
X5.9606Y-2.7803
X5.9606Y-3.3803
X6.0606Y-2.7803
X6.0606Y-3.3803
X6.1606Y-2.7803
X6.1606Y-3.3803
X6.2606Y-2.7803
X6.2606Y-3.3803
X6.3606Y-2.7803
X6.3606Y-3.3803
X6.4606Y-2.7803
X6.4606Y-3.3803
X6.5606Y-2.7803
X6.5606Y-3.3803
X6.6606Y-2.7803
X6.6606Y-3.3803
M30
