%TF.GenerationSoftware,KiCad,Pcbnew,8.0.5*%
%TF.CreationDate,2025-01-07T17:42:01+01:00*%
%TF.ProjectId,pendulo_invertido_Juan,70656e64-756c-46f5-9f69-6e7665727469,2*%
%TF.SameCoordinates,Original*%
%TF.FileFunction,Copper,L2,Bot*%
%TF.FilePolarity,Positive*%
%FSLAX46Y46*%
G04 Gerber Fmt 4.6, Leading zero omitted, Abs format (unit mm)*
G04 Created by KiCad (PCBNEW 8.0.5) date 2025-01-07 17:42:01*
%MOMM*%
%LPD*%
G01*
G04 APERTURE LIST*
%TA.AperFunction,ComponentPad*%
%ADD10R,1.860000X1.860000*%
%TD*%
%TA.AperFunction,ComponentPad*%
%ADD11C,1.860000*%
%TD*%
%TA.AperFunction,ComponentPad*%
%ADD12C,1.980000*%
%TD*%
%TA.AperFunction,ComponentPad*%
%ADD13C,1.560000*%
%TD*%
%TA.AperFunction,ComponentPad*%
%ADD14R,1.560000X1.560000*%
%TD*%
%TA.AperFunction,ComponentPad*%
%ADD15R,1.508000X1.508000*%
%TD*%
%TA.AperFunction,ViaPad*%
%ADD16C,0.500000*%
%TD*%
%TA.AperFunction,ViaPad*%
%ADD17C,1.600000*%
%TD*%
%TA.AperFunction,ViaPad*%
%ADD18C,1.100000*%
%TD*%
%TA.AperFunction,ViaPad*%
%ADD19C,0.600000*%
%TD*%
%TA.AperFunction,Conductor*%
%ADD20C,0.800000*%
%TD*%
%TA.AperFunction,Conductor*%
%ADD21C,0.200000*%
%TD*%
%TA.AperFunction,Conductor*%
%ADD22C,0.550000*%
%TD*%
%TA.AperFunction,Conductor*%
%ADD23C,0.250000*%
%TD*%
G04 APERTURE END LIST*
D10*
%TO.P,Q1,1,IN*%
%TO.N,+6V*%
X153320000Y-93480000D03*
D11*
%TO.P,Q1,2,GND*%
%TO.N,GND*%
X155860000Y-93480000D03*
%TO.P,Q1,3,OUT*%
%TO.N,+5V*%
X158400000Y-93480000D03*
%TD*%
D12*
%TO.P,U4,1,VM*%
%TO.N,+6V*%
X151400000Y-85860000D03*
%TO.P,U4,2,VCC*%
%TO.N,+3.3V*%
X153940000Y-85860000D03*
%TO.P,U4,3,GND*%
%TO.N,GND*%
X156480000Y-85860000D03*
%TO.P,U4,4,A01*%
%TO.N,Net-(U4-A01)*%
X159020000Y-85860000D03*
%TO.P,U4,5,A02*%
%TO.N,Net-(U4-A02)*%
X161560000Y-85860000D03*
%TO.P,U4,6,B02*%
%TO.N,Net-(U4-B02)*%
X164100000Y-85860000D03*
%TO.P,U4,7,B01*%
%TO.N,Net-(U4-B01)*%
X166640000Y-85860000D03*
%TO.P,U4,8,GND*%
%TO.N,GND*%
X169180000Y-85860000D03*
%TO.P,U4,9,GND*%
X169180000Y-70620000D03*
%TO.P,U4,10,PWMB*%
%TO.N,Net-(U1-IO16)*%
X166640000Y-70620000D03*
%TO.P,U4,11,BI2*%
%TO.N,Net-(U1-IO17)*%
X164100000Y-70620000D03*
%TO.P,U4,12,BI1*%
%TO.N,Net-(U1-IO5)*%
X161560000Y-70620000D03*
%TO.P,U4,13,STBY*%
%TO.N,Net-(U1-IO18)*%
X159020000Y-70620000D03*
%TO.P,U4,14,AI1*%
%TO.N,Net-(U1-IO4)*%
X156480000Y-70620000D03*
%TO.P,U4,15,AI2*%
%TO.N,Net-(U1-IO0)*%
X153940000Y-70620000D03*
%TO.P,U4,16,PWMA*%
%TO.N,Net-(U1-IO23)*%
X151400000Y-70620000D03*
%TD*%
D13*
%TO.P,U1,J3-19,CLK*%
%TO.N,unconnected-(U1-CLK-PadJ3-19)*%
X147010000Y-121240000D03*
%TO.P,U1,J3-18,SD0*%
%TO.N,unconnected-(U1-SD0-PadJ3-18)*%
X147010000Y-118700000D03*
%TO.P,U1,J3-17,SD1*%
%TO.N,unconnected-(U1-SD1-PadJ3-17)*%
X147010000Y-116160000D03*
%TO.P,U1,J3-16,IO15*%
%TO.N,unconnected-(U1-IO15-PadJ3-16)*%
X147010000Y-113620000D03*
%TO.P,U1,J3-15,IO2*%
%TO.N,unconnected-(U1-IO2-PadJ3-15)*%
X147010000Y-111080000D03*
%TO.P,U1,J3-14,IO0*%
%TO.N,Net-(U1-IO0)*%
X147010000Y-108540000D03*
%TO.P,U1,J3-13,IO4*%
%TO.N,Net-(U1-IO4)*%
X147010000Y-106000000D03*
%TO.P,U1,J3-12,IO16*%
%TO.N,Net-(U1-IO16)*%
X147010000Y-103460000D03*
%TO.P,U1,J3-11,IO17*%
%TO.N,Net-(U1-IO17)*%
X147010000Y-100920000D03*
%TO.P,U1,J3-10,IO5*%
%TO.N,Net-(U1-IO5)*%
X147010000Y-98380000D03*
%TO.P,U1,J3-9,IO18*%
%TO.N,Net-(U1-IO18)*%
X147010000Y-95840000D03*
%TO.P,U1,J3-8,IO19*%
%TO.N,unconnected-(U1-IO19-PadJ3-8)*%
X147010000Y-93300000D03*
%TO.P,U1,J3-7,GND2*%
%TO.N,GND*%
X147010000Y-90760000D03*
%TO.P,U1,J3-6,IO21*%
%TO.N,Net-(M1-SDA)*%
X147010000Y-88220000D03*
%TO.P,U1,J3-5,RXD0*%
%TO.N,unconnected-(U1-RXD0-PadJ3-5)*%
X147010000Y-85680000D03*
%TO.P,U1,J3-4,TXD0*%
%TO.N,unconnected-(U1-TXD0-PadJ3-4)*%
X147010000Y-83140000D03*
%TO.P,U1,J3-3,IO22*%
%TO.N,Net-(M1-SCL)*%
X147010000Y-80600000D03*
%TO.P,U1,J3-2,IO23*%
%TO.N,Net-(U1-IO23)*%
X147010000Y-78060000D03*
%TO.P,U1,J3-1,GND3*%
%TO.N,GND*%
X147010000Y-75520000D03*
%TO.P,U1,J2-19,EXT_5V*%
%TO.N,+5V*%
X121610000Y-121240000D03*
%TO.P,U1,J2-18,CMD*%
%TO.N,unconnected-(U1-CMD-PadJ2-18)*%
X121610000Y-118700000D03*
%TO.P,U1,J2-17,SD3*%
%TO.N,unconnected-(U1-SD3-PadJ2-17)*%
X121610000Y-116160000D03*
%TO.P,U1,J2-16,SD2*%
%TO.N,unconnected-(U1-SD2-PadJ2-16)*%
X121610000Y-113620000D03*
%TO.P,U1,J2-15,IO13*%
%TO.N,unconnected-(U1-IO13-PadJ2-15)*%
X121610000Y-111080000D03*
%TO.P,U1,J2-14,GND1*%
%TO.N,GND*%
X121610000Y-108540000D03*
%TO.P,U1,J2-13,IO12*%
%TO.N,unconnected-(U1-IO12-PadJ2-13)*%
X121610000Y-106000000D03*
%TO.P,U1,J2-12,IO14*%
%TO.N,unconnected-(U1-IO14-PadJ2-12)*%
X121610000Y-103460000D03*
%TO.P,U1,J2-11,IO27*%
%TO.N,unconnected-(U1-IO27-PadJ2-11)*%
X121610000Y-100920000D03*
%TO.P,U1,J2-10,IO26*%
%TO.N,unconnected-(U1-IO26-PadJ2-10)*%
X121610000Y-98380000D03*
%TO.P,U1,J2-9,IO25*%
%TO.N,unconnected-(U1-IO25-PadJ2-9)*%
X121610000Y-95840000D03*
%TO.P,U1,J2-8,IO33*%
%TO.N,unconnected-(U1-IO33-PadJ2-8)*%
X121610000Y-93300000D03*
%TO.P,U1,J2-7,IO32*%
%TO.N,unconnected-(U1-IO32-PadJ2-7)*%
X121610000Y-90760000D03*
%TO.P,U1,J2-6,IO35*%
%TO.N,unconnected-(U1-IO35-PadJ2-6)*%
X121610000Y-88220000D03*
%TO.P,U1,J2-5,IO34*%
%TO.N,unconnected-(U1-IO34-PadJ2-5)*%
X121610000Y-85680000D03*
%TO.P,U1,J2-4,SENSOR_VN*%
%TO.N,unconnected-(U1-SENSOR_VN-PadJ2-4)*%
X121610000Y-83140000D03*
%TO.P,U1,J2-3,SENSOR_VP*%
%TO.N,unconnected-(U1-SENSOR_VP-PadJ2-3)*%
X121610000Y-80600000D03*
%TO.P,U1,J2-2,EN*%
%TO.N,unconnected-(U1-EN-PadJ2-2)*%
X121610000Y-78060000D03*
D14*
%TO.P,U1,J2-1,3V3*%
%TO.N,+3.3V*%
X121610000Y-75520000D03*
%TD*%
D15*
%TO.P,M1,5,INT*%
%TO.N,unconnected-(M1-INT-Pad5)*%
X154920000Y-108908800D03*
%TO.P,M1,4,SCL*%
%TO.N,Net-(M1-SCL)*%
X157460000Y-108908800D03*
%TO.P,M1,3,SDA*%
%TO.N,Net-(M1-SDA)*%
X160000000Y-108908800D03*
%TO.P,M1,2,GND*%
%TO.N,GND*%
X162540000Y-108908800D03*
%TO.P,M1,1,VIN*%
%TO.N,+3.3V*%
X165080000Y-108908800D03*
%TD*%
D16*
%TO.N,GND*%
X140400000Y-88280000D03*
X156000000Y-95880000D03*
D17*
X163200000Y-94880000D03*
D16*
X168600000Y-94880000D03*
X167400000Y-110280000D03*
%TO.N,Net-(M1-SDA)*%
X150600000Y-89080000D03*
D18*
%TO.N,+5V*%
X158400000Y-101880000D03*
D17*
%TO.N,+6V*%
X153200000Y-89680000D03*
X167580000Y-93480000D03*
D19*
%TO.N,Net-(U4-A02)*%
X148610000Y-72031000D03*
%TO.N,Net-(U1-IO16)*%
X149577000Y-77351400D03*
%TO.N,Net-(U1-IO17)*%
X170945000Y-99627500D03*
%TO.N,Net-(U4-A02)*%
X156877000Y-72117200D03*
%TO.N,Net-(U1-IO18)*%
X148492000Y-78142700D03*
%TO.N,Net-(M1-SCL)*%
X145899000Y-104559000D03*
%TO.N,Net-(U4-A01)*%
X140890000Y-80315000D03*
%TO.N,Net-(U4-B01)*%
X143795000Y-86260000D03*
%TO.N,Net-(U1-IO5)*%
X149008000Y-79208000D03*
%TD*%
D20*
%TO.N,+6V*%
X162600000Y-93280000D02*
X159000000Y-89680000D01*
X167380000Y-93280000D02*
X162600000Y-93280000D01*
X167580000Y-93480000D02*
X167380000Y-93280000D01*
X159000000Y-89680000D02*
X153200000Y-89680000D01*
D21*
%TO.N,Net-(U1-IO5)*%
X155512000Y-76668500D02*
X161560000Y-70620000D01*
X148931000Y-77733171D02*
X148931000Y-77063900D01*
X149010000Y-78473229D02*
X149092000Y-78391229D01*
X149010000Y-79206000D02*
X149010000Y-78473229D01*
X149092000Y-78391229D02*
X149092000Y-77894171D01*
X149092000Y-77894171D02*
X148931000Y-77733171D01*
X149008000Y-79208000D02*
X149010000Y-79206000D01*
X148931000Y-77063900D02*
X149326000Y-76668500D01*
X149326000Y-76668500D02*
X155512000Y-76668500D01*
D22*
%TO.N,+5V*%
X158730000Y-102210000D02*
X158400000Y-101880000D01*
X158730000Y-110960000D02*
X158730000Y-102210000D01*
X153482000Y-114890000D02*
X157092000Y-111280000D01*
X127938000Y-114890000D02*
X153482000Y-114890000D01*
X157092000Y-111280000D02*
X158680000Y-111280000D01*
X158680000Y-111280000D02*
X158680000Y-111010000D01*
X158680000Y-111010000D02*
X158730000Y-110960000D01*
X122418000Y-120410000D02*
X127938000Y-114890000D01*
D20*
%TO.N,GND*%
X142880000Y-90760000D02*
X146987500Y-90760000D01*
X140400000Y-88280000D02*
X142880000Y-90760000D01*
X162200000Y-95880000D02*
X163200000Y-94880000D01*
X156000000Y-95880000D02*
X162200000Y-95880000D01*
X164600000Y-94880000D02*
X163200000Y-94880000D01*
X169180000Y-85860000D02*
X169180000Y-70620000D01*
X169600000Y-86280000D02*
X169180000Y-85860000D01*
X169600000Y-93880000D02*
X169600000Y-86280000D01*
X168600000Y-94880000D02*
X169600000Y-93880000D01*
X164600000Y-94880000D02*
X168600000Y-94880000D01*
D23*
X167100000Y-110580000D02*
X167400000Y-110280000D01*
%TO.N,Net-(M1-SDA)*%
X149340000Y-88220000D02*
X146987500Y-88220000D01*
X150600000Y-89080000D02*
X150200000Y-89080000D01*
X150200000Y-89080000D02*
X149340000Y-88220000D01*
D21*
%TO.N,+5V*%
X122418000Y-120410000D02*
X122417500Y-120410000D01*
D22*
X122417500Y-120410000D02*
X121587500Y-121240000D01*
D21*
X121588000Y-121240000D02*
X122418000Y-120410000D01*
%TO.N,Net-(U4-A01)*%
X148356000Y-79514700D02*
X148651000Y-79809700D01*
%TO.N,Net-(M1-SDA)*%
X147488000Y-88720000D02*
X146988000Y-88220000D01*
X147488000Y-88720000D02*
X147487500Y-88720000D01*
%TO.N,+3.3V*%
X121588000Y-75520000D02*
X122669000Y-75520000D01*
%TO.N,Net-(U4-A01)*%
X141690000Y-79514700D02*
X148356000Y-79514700D01*
%TO.N,+3.3V*%
X129019000Y-81870000D02*
X149950000Y-81870000D01*
%TO.N,Net-(U4-B01)*%
X144485000Y-86950000D02*
X143795000Y-86260000D01*
%TO.N,Net-(U4-A02)*%
X148610000Y-72031000D02*
X156791000Y-72031000D01*
%TO.N,Net-(M1-SCL)*%
X145899000Y-104559000D02*
X152582000Y-104559000D01*
%TO.N,Net-(U4-A01)*%
X140890000Y-80315000D02*
X141690000Y-79514700D01*
%TO.N,+3.3V*%
X149950000Y-81870000D02*
X153940000Y-85860000D01*
%TO.N,Net-(U4-B01)*%
X165338000Y-87162300D02*
X150876000Y-87162300D01*
%TO.N,Net-(U4-A02)*%
X156791000Y-72031000D02*
X156877000Y-72117200D01*
%TO.N,Net-(U4-A01)*%
X152970000Y-79809700D02*
X159020000Y-85860000D01*
%TO.N,Net-(M1-SDA)*%
X147487500Y-88720000D02*
X146987500Y-88220000D01*
%TO.N,Net-(U4-B01)*%
X166640000Y-85860000D02*
X165338000Y-87162300D01*
%TO.N,+3.3V*%
X122669000Y-75520000D02*
X129019000Y-81870000D01*
%TO.N,Net-(U4-A01)*%
X148651000Y-79809700D02*
X152970000Y-79809700D01*
%TO.N,Net-(U1-IO17)*%
X146987500Y-100920000D02*
X169652500Y-100920000D01*
%TO.N,Net-(U1-IO16)*%
X166640000Y-70620000D02*
X159909000Y-77351400D01*
%TO.N,Net-(U1-IO18)*%
X152639000Y-72718900D02*
X157126000Y-72718900D01*
X148492000Y-76866400D02*
X152639000Y-72718900D01*
X148492000Y-78142700D02*
X148492000Y-76866400D01*
%TO.N,Net-(U1-IO16)*%
X159909000Y-77351400D02*
X149577000Y-77351400D01*
%TO.N,Net-(U1-IO18)*%
X157126000Y-72718900D02*
X159020000Y-70825000D01*
%TO.N,Net-(U1-IO17)*%
X169652500Y-100920000D02*
X170945000Y-99627500D01*
%TO.N,Net-(U4-B01)*%
X150876000Y-87162300D02*
X150663000Y-86950000D01*
%TO.N,Net-(M1-SCL)*%
X152582000Y-104559000D02*
X156931800Y-108908800D01*
%TO.N,Net-(U4-B01)*%
X150663000Y-86950000D02*
X144485000Y-86950000D01*
D23*
%TO.N,GND*%
X167100000Y-110580000D02*
X164211200Y-110580000D01*
X164211200Y-110580000D02*
X162540000Y-108908800D01*
%TD*%
%TA.AperFunction,Conductor*%
%TO.N,GND*%
G36*
X148442797Y-80375595D02*
G01*
X148571943Y-80410201D01*
X148571946Y-80410201D01*
X148737653Y-80410201D01*
X148737669Y-80410200D01*
X152669892Y-80410200D01*
X152736931Y-80429885D01*
X152757575Y-80446521D01*
X157081665Y-84770825D01*
X157111892Y-84820120D01*
X157593373Y-86299144D01*
X157595668Y-86307086D01*
X157605425Y-86345615D01*
X157605427Y-86345620D01*
X157614898Y-86367213D01*
X157619248Y-86378629D01*
X157620780Y-86383334D01*
X157625575Y-86397154D01*
X157628953Y-86466942D01*
X157594064Y-86527478D01*
X157531986Y-86559541D01*
X157508426Y-86561800D01*
X155449544Y-86561800D01*
X155382505Y-86542115D01*
X155336750Y-86489311D01*
X155326806Y-86420153D01*
X155335986Y-86387992D01*
X155354572Y-86345623D01*
X155415210Y-86106169D01*
X155428799Y-85942169D01*
X155435608Y-85860005D01*
X155435608Y-85859994D01*
X155415210Y-85613834D01*
X155415210Y-85613831D01*
X155354572Y-85374377D01*
X155255348Y-85148169D01*
X155120245Y-84941379D01*
X154952948Y-84759645D01*
X154952943Y-84759641D01*
X154952941Y-84759639D01*
X154758028Y-84607932D01*
X154758022Y-84607928D01*
X154540780Y-84490362D01*
X154540771Y-84490359D01*
X154490862Y-84473225D01*
X154476350Y-84467190D01*
X154463332Y-84460780D01*
X154463329Y-84460779D01*
X153586967Y-84175464D01*
X153586967Y-84175463D01*
X152900163Y-83951861D01*
X152850869Y-83921634D01*
X150437590Y-81508355D01*
X150437588Y-81508352D01*
X150318717Y-81389481D01*
X150318716Y-81389480D01*
X150231904Y-81339360D01*
X150231904Y-81339359D01*
X150231900Y-81339358D01*
X150181785Y-81310423D01*
X150029057Y-81269499D01*
X149870943Y-81269499D01*
X149863347Y-81269499D01*
X149863331Y-81269500D01*
X148305323Y-81269500D01*
X148238284Y-81249815D01*
X148192529Y-81197011D01*
X148182585Y-81127853D01*
X148192941Y-81093096D01*
X148211119Y-81054111D01*
X148217872Y-81039630D01*
X148275863Y-80823206D01*
X148295391Y-80600000D01*
X148287182Y-80506177D01*
X148300948Y-80437680D01*
X148349563Y-80387497D01*
X148417591Y-80371563D01*
X148442797Y-80375595D01*
G37*
%TD.AperFunction*%
%TA.AperFunction,Conductor*%
G36*
X171187680Y-62382882D02*
G01*
X171197704Y-62384876D01*
X171259612Y-62417262D01*
X171294184Y-62477979D01*
X171295122Y-62482288D01*
X171297115Y-62492308D01*
X171299500Y-62516506D01*
X171299500Y-98728690D01*
X171279815Y-98795729D01*
X171227011Y-98841484D01*
X171157853Y-98851428D01*
X171134549Y-98845733D01*
X171124259Y-98842133D01*
X171124249Y-98842130D01*
X170945004Y-98821935D01*
X170944996Y-98821935D01*
X170765750Y-98842130D01*
X170765745Y-98842131D01*
X170595476Y-98901711D01*
X170442737Y-98997684D01*
X170315184Y-99125237D01*
X170264295Y-99206228D01*
X170219211Y-99277978D01*
X170219210Y-99277979D01*
X170219209Y-99277982D01*
X170216972Y-99284374D01*
X170206539Y-99305580D01*
X170206916Y-99305790D01*
X170204766Y-99309663D01*
X170032463Y-99680163D01*
X170007708Y-99715555D01*
X169440084Y-100283181D01*
X169378761Y-100316666D01*
X169352403Y-100319500D01*
X148726630Y-100319500D01*
X148671891Y-100306764D01*
X148623955Y-100283181D01*
X147760837Y-99858551D01*
X147559183Y-99759343D01*
X147507719Y-99712086D01*
X147489973Y-99644508D01*
X147511581Y-99578063D01*
X147561513Y-99535700D01*
X147652696Y-99493181D01*
X147836233Y-99364667D01*
X147994667Y-99206233D01*
X148123181Y-99022696D01*
X148217872Y-98819630D01*
X148275863Y-98603206D01*
X148295391Y-98380000D01*
X148275863Y-98156794D01*
X148217872Y-97940370D01*
X148123181Y-97737305D01*
X147994667Y-97553767D01*
X147836233Y-97395333D01*
X147836229Y-97395330D01*
X147836228Y-97395329D01*
X147652700Y-97266821D01*
X147652692Y-97266817D01*
X147557400Y-97222382D01*
X147504960Y-97176210D01*
X147485808Y-97109017D01*
X147506023Y-97042135D01*
X147557400Y-96997618D01*
X147652696Y-96953181D01*
X147836233Y-96824667D01*
X147994667Y-96666233D01*
X148123181Y-96482696D01*
X148217872Y-96279630D01*
X148275863Y-96063206D01*
X148295391Y-95840000D01*
X148275863Y-95616794D01*
X148217872Y-95400370D01*
X148123181Y-95197305D01*
X147994667Y-95013767D01*
X147836233Y-94855333D01*
X147836229Y-94855330D01*
X147836228Y-94855329D01*
X147652700Y-94726821D01*
X147652692Y-94726817D01*
X147557400Y-94682382D01*
X147504960Y-94636210D01*
X147485808Y-94569017D01*
X147506023Y-94502135D01*
X147557400Y-94457618D01*
X147652696Y-94413181D01*
X147836233Y-94284667D01*
X147994667Y-94126233D01*
X148123181Y-93942696D01*
X148217872Y-93739630D01*
X148275863Y-93523206D01*
X148295391Y-93300000D01*
X148291305Y-93253302D01*
X148275863Y-93076799D01*
X148275863Y-93076794D01*
X148217872Y-92860370D01*
X148123181Y-92657305D01*
X148058924Y-92565536D01*
X148014531Y-92502135D01*
X151889500Y-92502135D01*
X151889500Y-94457870D01*
X151889501Y-94457876D01*
X151895908Y-94517483D01*
X151946202Y-94652328D01*
X151946206Y-94652335D01*
X152032452Y-94767544D01*
X152032455Y-94767547D01*
X152147664Y-94853793D01*
X152147671Y-94853797D01*
X152282517Y-94904091D01*
X152282516Y-94904091D01*
X152289444Y-94904835D01*
X152342127Y-94910500D01*
X154297872Y-94910499D01*
X154357483Y-94904091D01*
X154492331Y-94853796D01*
X154607546Y-94767546D01*
X154693796Y-94652331D01*
X154744091Y-94517483D01*
X154750500Y-94457873D01*
X154750499Y-93479994D01*
X156964597Y-93479994D01*
X156964597Y-93480005D01*
X156984173Y-93716256D01*
X157042370Y-93946075D01*
X157137600Y-94163175D01*
X157267265Y-94361644D01*
X157427824Y-94536056D01*
X157427828Y-94536060D01*
X157614909Y-94681671D01*
X157823405Y-94794504D01*
X158047629Y-94871480D01*
X158281465Y-94910500D01*
X158518535Y-94910500D01*
X158752371Y-94871480D01*
X158976595Y-94794504D01*
X159185091Y-94681671D01*
X159372172Y-94536060D01*
X159532735Y-94361643D01*
X159662399Y-94163176D01*
X159757629Y-93946075D01*
X159815826Y-93716260D01*
X159831823Y-93523206D01*
X159835403Y-93480005D01*
X159835403Y-93479994D01*
X159815826Y-93243743D01*
X159815826Y-93243740D01*
X159757629Y-93013925D01*
X159662399Y-92796824D01*
X159571248Y-92657306D01*
X159532734Y-92598355D01*
X159372175Y-92423943D01*
X159372172Y-92423940D01*
X159232635Y-92315334D01*
X159185091Y-92278329D01*
X159185089Y-92278328D01*
X159185088Y-92278327D01*
X158976595Y-92165496D01*
X158976587Y-92165493D01*
X158752373Y-92088520D01*
X158518535Y-92049500D01*
X158281465Y-92049500D01*
X158047626Y-92088520D01*
X157823412Y-92165493D01*
X157823404Y-92165496D01*
X157614911Y-92278327D01*
X157427827Y-92423940D01*
X157427824Y-92423943D01*
X157267265Y-92598355D01*
X157137600Y-92796824D01*
X157042370Y-93013924D01*
X156984173Y-93243743D01*
X156964597Y-93479994D01*
X154750499Y-93479994D01*
X154750499Y-92502128D01*
X154744091Y-92442517D01*
X154737163Y-92423943D01*
X154693797Y-92307671D01*
X154693793Y-92307664D01*
X154607547Y-92192455D01*
X154607544Y-92192452D01*
X154492335Y-92106206D01*
X154492328Y-92106202D01*
X154357482Y-92055908D01*
X154357483Y-92055908D01*
X154297883Y-92049501D01*
X154297881Y-92049500D01*
X154297873Y-92049500D01*
X154297864Y-92049500D01*
X152342129Y-92049500D01*
X152342123Y-92049501D01*
X152282516Y-92055908D01*
X152147671Y-92106202D01*
X152147664Y-92106206D01*
X152032455Y-92192452D01*
X152032452Y-92192455D01*
X151946206Y-92307664D01*
X151946202Y-92307671D01*
X151895908Y-92442517D01*
X151889501Y-92502116D01*
X151889501Y-92502123D01*
X151889500Y-92502135D01*
X148014531Y-92502135D01*
X147994668Y-92473768D01*
X147944840Y-92423940D01*
X147836233Y-92315333D01*
X147836229Y-92315330D01*
X147836228Y-92315329D01*
X147652700Y-92186821D01*
X147652696Y-92186819D01*
X147626346Y-92174532D01*
X147449630Y-92092128D01*
X147449627Y-92092127D01*
X147449625Y-92092126D01*
X147233208Y-92034137D01*
X147233200Y-92034136D01*
X147010002Y-92014609D01*
X147009998Y-92014609D01*
X146786799Y-92034136D01*
X146786791Y-92034137D01*
X146570374Y-92092126D01*
X146570368Y-92092129D01*
X146367306Y-92186818D01*
X146367304Y-92186819D01*
X146183764Y-92315334D01*
X146025334Y-92473764D01*
X145896819Y-92657304D01*
X145896818Y-92657306D01*
X145802129Y-92860368D01*
X145802126Y-92860374D01*
X145744137Y-93076791D01*
X145744136Y-93076799D01*
X145724609Y-93299998D01*
X145724609Y-93300001D01*
X145744136Y-93523200D01*
X145744137Y-93523208D01*
X145802126Y-93739625D01*
X145802127Y-93739627D01*
X145802128Y-93739630D01*
X145889261Y-93926488D01*
X145896819Y-93942696D01*
X145896821Y-93942700D01*
X146025329Y-94126228D01*
X146025334Y-94126234D01*
X146183765Y-94284665D01*
X146183771Y-94284670D01*
X146367299Y-94413178D01*
X146367301Y-94413179D01*
X146367304Y-94413181D01*
X146462600Y-94457618D01*
X146515039Y-94503790D01*
X146534191Y-94570984D01*
X146513975Y-94637865D01*
X146462600Y-94682382D01*
X146367306Y-94726818D01*
X146367304Y-94726819D01*
X146183764Y-94855334D01*
X146025334Y-95013764D01*
X145896819Y-95197304D01*
X145896818Y-95197306D01*
X145802129Y-95400368D01*
X145802126Y-95400374D01*
X145744137Y-95616791D01*
X145744136Y-95616799D01*
X145724609Y-95839998D01*
X145724609Y-95840001D01*
X145744136Y-96063200D01*
X145744137Y-96063208D01*
X145802126Y-96279625D01*
X145802127Y-96279627D01*
X145802128Y-96279630D01*
X145896819Y-96482696D01*
X145896821Y-96482700D01*
X146025329Y-96666228D01*
X146025334Y-96666234D01*
X146183765Y-96824665D01*
X146183771Y-96824670D01*
X146367299Y-96953178D01*
X146367301Y-96953179D01*
X146367304Y-96953181D01*
X146462600Y-96997618D01*
X146515039Y-97043790D01*
X146534191Y-97110984D01*
X146513975Y-97177865D01*
X146462600Y-97222382D01*
X146367306Y-97266818D01*
X146367304Y-97266819D01*
X146183764Y-97395334D01*
X146025334Y-97553764D01*
X145896819Y-97737304D01*
X145896818Y-97737306D01*
X145802129Y-97940368D01*
X145802126Y-97940374D01*
X145744137Y-98156791D01*
X145744136Y-98156799D01*
X145724609Y-98379998D01*
X145724609Y-98380001D01*
X145744136Y-98603200D01*
X145744137Y-98603208D01*
X145802126Y-98819625D01*
X145802127Y-98819627D01*
X145802128Y-98819630D01*
X145814300Y-98845733D01*
X145896819Y-99022696D01*
X145896821Y-99022700D01*
X146025329Y-99206228D01*
X146025334Y-99206234D01*
X146183765Y-99364665D01*
X146183771Y-99364670D01*
X146367299Y-99493178D01*
X146367301Y-99493179D01*
X146367304Y-99493181D01*
X146458478Y-99535696D01*
X146462600Y-99537618D01*
X146515039Y-99583790D01*
X146534191Y-99650984D01*
X146513975Y-99717865D01*
X146462600Y-99762382D01*
X146367306Y-99806818D01*
X146367304Y-99806819D01*
X146183764Y-99935334D01*
X146025334Y-100093764D01*
X145896819Y-100277304D01*
X145896818Y-100277306D01*
X145802129Y-100480368D01*
X145802126Y-100480374D01*
X145744137Y-100696791D01*
X145744136Y-100696799D01*
X145724609Y-100919998D01*
X145724609Y-100920001D01*
X145744136Y-101143200D01*
X145744137Y-101143208D01*
X145802126Y-101359625D01*
X145802127Y-101359627D01*
X145802128Y-101359630D01*
X145896819Y-101562696D01*
X145896821Y-101562700D01*
X146025329Y-101746228D01*
X146025334Y-101746234D01*
X146183765Y-101904665D01*
X146183771Y-101904670D01*
X146367299Y-102033178D01*
X146367301Y-102033179D01*
X146367304Y-102033181D01*
X146462600Y-102077618D01*
X146515039Y-102123790D01*
X146534191Y-102190984D01*
X146513975Y-102257865D01*
X146462600Y-102302382D01*
X146367306Y-102346818D01*
X146367304Y-102346819D01*
X146183764Y-102475334D01*
X146025334Y-102633764D01*
X145896819Y-102817304D01*
X145896818Y-102817306D01*
X145802129Y-103020368D01*
X145802126Y-103020374D01*
X145744137Y-103236791D01*
X145744136Y-103236799D01*
X145724609Y-103459998D01*
X145724609Y-103460002D01*
X145742688Y-103666648D01*
X145728921Y-103735148D01*
X145680306Y-103785331D01*
X145660115Y-103794496D01*
X145549480Y-103833209D01*
X145396737Y-103929184D01*
X145269184Y-104056737D01*
X145173211Y-104209476D01*
X145113631Y-104379745D01*
X145113630Y-104379750D01*
X145093435Y-104558996D01*
X145093435Y-104559003D01*
X145113630Y-104738249D01*
X145113631Y-104738254D01*
X145173211Y-104908523D01*
X145240322Y-105015329D01*
X145269184Y-105061262D01*
X145396738Y-105188816D01*
X145549478Y-105284789D01*
X145719745Y-105344368D01*
X145722313Y-105344657D01*
X145723860Y-105345307D01*
X145726532Y-105345917D01*
X145726425Y-105346384D01*
X145786726Y-105371717D01*
X145826287Y-105429308D01*
X145828431Y-105499145D01*
X145820821Y-105520281D01*
X145802129Y-105560367D01*
X145802126Y-105560374D01*
X145744137Y-105776791D01*
X145744136Y-105776799D01*
X145724609Y-105999998D01*
X145724609Y-106000001D01*
X145744136Y-106223200D01*
X145744137Y-106223208D01*
X145802126Y-106439625D01*
X145802127Y-106439627D01*
X145802128Y-106439630D01*
X145896819Y-106642696D01*
X145896821Y-106642700D01*
X146025329Y-106826228D01*
X146025334Y-106826234D01*
X146183765Y-106984665D01*
X146183771Y-106984670D01*
X146367299Y-107113178D01*
X146367301Y-107113179D01*
X146367304Y-107113181D01*
X146462600Y-107157618D01*
X146515039Y-107203790D01*
X146534191Y-107270984D01*
X146513975Y-107337865D01*
X146462600Y-107382382D01*
X146367306Y-107426818D01*
X146367304Y-107426819D01*
X146183764Y-107555334D01*
X146025334Y-107713764D01*
X145896819Y-107897304D01*
X145896818Y-107897306D01*
X145802129Y-108100368D01*
X145802126Y-108100374D01*
X145744137Y-108316791D01*
X145744136Y-108316799D01*
X145724609Y-108539998D01*
X145724609Y-108540001D01*
X145744136Y-108763200D01*
X145744137Y-108763208D01*
X145802126Y-108979625D01*
X145802127Y-108979627D01*
X145802128Y-108979630D01*
X145896819Y-109182696D01*
X145896821Y-109182700D01*
X146025329Y-109366228D01*
X146025334Y-109366234D01*
X146183765Y-109524665D01*
X146183771Y-109524670D01*
X146367299Y-109653178D01*
X146367301Y-109653179D01*
X146367304Y-109653181D01*
X146462600Y-109697618D01*
X146515039Y-109743790D01*
X146534191Y-109810984D01*
X146513975Y-109877865D01*
X146462600Y-109922382D01*
X146367306Y-109966818D01*
X146367304Y-109966819D01*
X146183764Y-110095334D01*
X146025334Y-110253764D01*
X145896819Y-110437304D01*
X145896818Y-110437306D01*
X145802129Y-110640368D01*
X145802126Y-110640374D01*
X145744137Y-110856791D01*
X145744136Y-110856799D01*
X145724609Y-111079998D01*
X145724609Y-111080001D01*
X145744136Y-111303200D01*
X145744137Y-111303208D01*
X145802126Y-111519625D01*
X145802127Y-111519627D01*
X145802128Y-111519630D01*
X145896819Y-111722696D01*
X145896821Y-111722700D01*
X146025329Y-111906228D01*
X146025334Y-111906234D01*
X146183765Y-112064665D01*
X146183771Y-112064670D01*
X146367299Y-112193178D01*
X146367301Y-112193179D01*
X146367304Y-112193181D01*
X146462600Y-112237618D01*
X146515039Y-112283790D01*
X146534191Y-112350984D01*
X146513975Y-112417865D01*
X146462600Y-112462382D01*
X146367306Y-112506818D01*
X146367304Y-112506819D01*
X146183764Y-112635334D01*
X146025334Y-112793764D01*
X145896819Y-112977304D01*
X145896818Y-112977306D01*
X145802129Y-113180368D01*
X145802126Y-113180374D01*
X145744137Y-113396791D01*
X145744136Y-113396799D01*
X145724609Y-113619998D01*
X145724609Y-113620001D01*
X145744136Y-113843200D01*
X145744138Y-113843210D01*
X145775005Y-113958407D01*
X145773342Y-114028256D01*
X145734179Y-114086119D01*
X145669951Y-114113623D01*
X145655230Y-114114500D01*
X127861615Y-114114500D01*
X127711802Y-114144300D01*
X127711794Y-114144302D01*
X127570665Y-114202759D01*
X127570656Y-114202764D01*
X127443648Y-114287629D01*
X127443644Y-114287632D01*
X123094355Y-118636921D01*
X123033032Y-118670406D01*
X122963340Y-118665422D01*
X122907407Y-118623550D01*
X122883146Y-118560048D01*
X122875863Y-118476794D01*
X122817872Y-118260370D01*
X122723181Y-118057305D01*
X122594667Y-117873767D01*
X122436233Y-117715333D01*
X122436229Y-117715330D01*
X122436228Y-117715329D01*
X122252700Y-117586821D01*
X122252692Y-117586817D01*
X122157400Y-117542382D01*
X122104960Y-117496210D01*
X122085808Y-117429017D01*
X122106023Y-117362135D01*
X122157400Y-117317618D01*
X122252696Y-117273181D01*
X122436233Y-117144667D01*
X122594667Y-116986233D01*
X122723181Y-116802696D01*
X122817872Y-116599630D01*
X122875863Y-116383206D01*
X122895391Y-116160000D01*
X122875863Y-115936794D01*
X122817872Y-115720370D01*
X122723181Y-115517305D01*
X122594667Y-115333767D01*
X122436233Y-115175333D01*
X122436229Y-115175330D01*
X122436228Y-115175329D01*
X122252700Y-115046821D01*
X122252692Y-115046817D01*
X122157400Y-115002382D01*
X122104960Y-114956210D01*
X122085808Y-114889017D01*
X122106023Y-114822135D01*
X122157400Y-114777618D01*
X122252696Y-114733181D01*
X122436233Y-114604667D01*
X122594667Y-114446233D01*
X122723181Y-114262696D01*
X122817872Y-114059630D01*
X122875863Y-113843206D01*
X122895391Y-113620000D01*
X122875863Y-113396794D01*
X122817872Y-113180370D01*
X122723181Y-112977305D01*
X122594667Y-112793767D01*
X122436233Y-112635333D01*
X122436229Y-112635330D01*
X122436228Y-112635329D01*
X122252700Y-112506821D01*
X122252692Y-112506817D01*
X122157400Y-112462382D01*
X122104960Y-112416210D01*
X122085808Y-112349017D01*
X122106023Y-112282135D01*
X122157400Y-112237618D01*
X122252696Y-112193181D01*
X122436233Y-112064667D01*
X122594667Y-111906233D01*
X122723181Y-111722696D01*
X122817872Y-111519630D01*
X122875863Y-111303206D01*
X122895391Y-111080000D01*
X122875863Y-110856794D01*
X122817872Y-110640370D01*
X122723181Y-110437305D01*
X122594667Y-110253767D01*
X122436233Y-110095333D01*
X122436229Y-110095330D01*
X122436228Y-110095329D01*
X122252700Y-109966821D01*
X122252696Y-109966819D01*
X122252692Y-109966817D01*
X122049630Y-109872128D01*
X122049627Y-109872127D01*
X122049625Y-109872126D01*
X121833208Y-109814137D01*
X121833200Y-109814136D01*
X121610002Y-109794609D01*
X121609998Y-109794609D01*
X121386799Y-109814136D01*
X121386791Y-109814137D01*
X121170374Y-109872126D01*
X121170368Y-109872129D01*
X120967306Y-109966818D01*
X120967304Y-109966819D01*
X120783764Y-110095334D01*
X120625334Y-110253764D01*
X120496819Y-110437304D01*
X120496818Y-110437306D01*
X120402129Y-110640368D01*
X120402126Y-110640374D01*
X120344137Y-110856791D01*
X120344136Y-110856799D01*
X120324609Y-111079998D01*
X120324609Y-111080001D01*
X120344136Y-111303200D01*
X120344137Y-111303208D01*
X120402126Y-111519625D01*
X120402127Y-111519627D01*
X120402128Y-111519630D01*
X120496819Y-111722696D01*
X120496821Y-111722700D01*
X120625329Y-111906228D01*
X120625334Y-111906234D01*
X120783765Y-112064665D01*
X120783771Y-112064670D01*
X120967299Y-112193178D01*
X120967301Y-112193179D01*
X120967304Y-112193181D01*
X121062600Y-112237618D01*
X121115039Y-112283790D01*
X121134191Y-112350984D01*
X121113975Y-112417865D01*
X121062600Y-112462382D01*
X120967306Y-112506818D01*
X120967304Y-112506819D01*
X120783764Y-112635334D01*
X120625334Y-112793764D01*
X120496819Y-112977304D01*
X120496818Y-112977306D01*
X120402129Y-113180368D01*
X120402126Y-113180374D01*
X120344137Y-113396791D01*
X120344136Y-113396799D01*
X120324609Y-113619998D01*
X120324609Y-113620001D01*
X120344136Y-113843200D01*
X120344137Y-113843208D01*
X120402126Y-114059625D01*
X120402127Y-114059627D01*
X120402128Y-114059630D01*
X120441610Y-114144300D01*
X120496819Y-114262696D01*
X120496821Y-114262700D01*
X120625329Y-114446228D01*
X120625334Y-114446234D01*
X120783765Y-114604665D01*
X120783771Y-114604670D01*
X120967299Y-114733178D01*
X120967301Y-114733179D01*
X120967304Y-114733181D01*
X121062600Y-114777618D01*
X121115039Y-114823790D01*
X121134191Y-114890984D01*
X121113975Y-114957865D01*
X121062600Y-115002382D01*
X120967306Y-115046818D01*
X120967304Y-115046819D01*
X120783764Y-115175334D01*
X120625334Y-115333764D01*
X120496819Y-115517304D01*
X120496818Y-115517306D01*
X120441612Y-115635697D01*
X120410779Y-115701819D01*
X120402129Y-115720368D01*
X120402126Y-115720374D01*
X120344137Y-115936791D01*
X120344136Y-115936799D01*
X120324609Y-116159998D01*
X120324609Y-116160001D01*
X120344136Y-116383200D01*
X120344137Y-116383208D01*
X120402126Y-116599625D01*
X120402127Y-116599627D01*
X120402128Y-116599630D01*
X120496819Y-116802696D01*
X120496821Y-116802700D01*
X120625329Y-116986228D01*
X120625334Y-116986234D01*
X120783765Y-117144665D01*
X120783771Y-117144670D01*
X120967299Y-117273178D01*
X120967301Y-117273179D01*
X120967304Y-117273181D01*
X121062600Y-117317618D01*
X121115039Y-117363790D01*
X121134191Y-117430984D01*
X121113975Y-117497865D01*
X121062600Y-117542382D01*
X120967306Y-117586818D01*
X120967304Y-117586819D01*
X120783764Y-117715334D01*
X120625334Y-117873764D01*
X120496819Y-118057304D01*
X120496818Y-118057306D01*
X120402129Y-118260368D01*
X120402126Y-118260374D01*
X120344137Y-118476791D01*
X120344136Y-118476799D01*
X120324609Y-118699998D01*
X120324609Y-118700001D01*
X120344136Y-118923200D01*
X120344137Y-118923208D01*
X120402126Y-119139625D01*
X120402127Y-119139627D01*
X120402128Y-119139630D01*
X120496819Y-119342696D01*
X120496821Y-119342700D01*
X120625329Y-119526228D01*
X120625334Y-119526234D01*
X120783765Y-119684665D01*
X120783771Y-119684670D01*
X120967299Y-119813178D01*
X120967301Y-119813179D01*
X120967304Y-119813181D01*
X121060136Y-119856469D01*
X121112575Y-119902641D01*
X121131727Y-119969835D01*
X121111511Y-120036716D01*
X121069332Y-120075433D01*
X121069588Y-120075815D01*
X121067789Y-120077021D01*
X121067867Y-120077151D01*
X121067040Y-120077647D01*
X121066718Y-120077833D01*
X121066482Y-120078050D01*
X121065348Y-120078659D01*
X121061414Y-120081300D01*
X121044726Y-120090715D01*
X120967310Y-120126815D01*
X120967303Y-120126819D01*
X120783765Y-120255333D01*
X120625334Y-120413764D01*
X120496819Y-120597304D01*
X120496818Y-120597306D01*
X120402129Y-120800368D01*
X120402126Y-120800374D01*
X120344137Y-121016791D01*
X120344136Y-121016799D01*
X120324609Y-121239998D01*
X120324609Y-121240001D01*
X120344136Y-121463200D01*
X120344137Y-121463208D01*
X120402126Y-121679625D01*
X120402127Y-121679627D01*
X120402128Y-121679630D01*
X120430729Y-121740965D01*
X120496819Y-121882696D01*
X120496821Y-121882700D01*
X120625329Y-122066228D01*
X120625334Y-122066234D01*
X120783765Y-122224665D01*
X120783771Y-122224670D01*
X120967299Y-122353178D01*
X120967301Y-122353179D01*
X120967304Y-122353181D01*
X121170370Y-122447872D01*
X121386794Y-122505863D01*
X121546226Y-122519811D01*
X121609998Y-122525391D01*
X121610000Y-122525391D01*
X121610002Y-122525391D01*
X121665801Y-122520509D01*
X121833206Y-122505863D01*
X122049630Y-122447872D01*
X122252696Y-122353181D01*
X122436233Y-122224667D01*
X122594667Y-122066233D01*
X122723181Y-121882696D01*
X122773776Y-121774191D01*
X122782228Y-121758961D01*
X122793937Y-121740974D01*
X123312276Y-120623145D01*
X123337084Y-120587636D01*
X128222903Y-115701819D01*
X128284226Y-115668334D01*
X128310584Y-115665500D01*
X145655230Y-115665500D01*
X145722269Y-115685185D01*
X145768024Y-115737989D01*
X145777968Y-115807147D01*
X145775005Y-115821593D01*
X145744138Y-115936789D01*
X145744136Y-115936799D01*
X145724609Y-116159998D01*
X145724609Y-116160001D01*
X145744136Y-116383200D01*
X145744137Y-116383208D01*
X145802126Y-116599625D01*
X145802127Y-116599627D01*
X145802128Y-116599630D01*
X145896819Y-116802696D01*
X145896821Y-116802700D01*
X146025329Y-116986228D01*
X146025334Y-116986234D01*
X146183765Y-117144665D01*
X146183771Y-117144670D01*
X146367299Y-117273178D01*
X146367301Y-117273179D01*
X146367304Y-117273181D01*
X146462600Y-117317618D01*
X146515039Y-117363790D01*
X146534191Y-117430984D01*
X146513975Y-117497865D01*
X146462600Y-117542382D01*
X146367306Y-117586818D01*
X146367304Y-117586819D01*
X146183764Y-117715334D01*
X146025334Y-117873764D01*
X145896819Y-118057304D01*
X145896818Y-118057306D01*
X145802129Y-118260368D01*
X145802126Y-118260374D01*
X145744137Y-118476791D01*
X145744136Y-118476799D01*
X145724609Y-118699998D01*
X145724609Y-118700001D01*
X145744136Y-118923200D01*
X145744137Y-118923208D01*
X145802126Y-119139625D01*
X145802127Y-119139627D01*
X145802128Y-119139630D01*
X145896819Y-119342696D01*
X145896821Y-119342700D01*
X146025329Y-119526228D01*
X146025334Y-119526234D01*
X146183765Y-119684665D01*
X146183771Y-119684670D01*
X146367299Y-119813178D01*
X146367301Y-119813179D01*
X146367304Y-119813181D01*
X146460136Y-119856469D01*
X146462600Y-119857618D01*
X146515039Y-119903790D01*
X146534191Y-119970984D01*
X146513975Y-120037865D01*
X146462600Y-120082382D01*
X146367306Y-120126818D01*
X146367304Y-120126819D01*
X146183764Y-120255334D01*
X146025334Y-120413764D01*
X145896819Y-120597304D01*
X145896818Y-120597306D01*
X145802129Y-120800368D01*
X145802126Y-120800374D01*
X145744137Y-121016791D01*
X145744136Y-121016799D01*
X145724609Y-121239998D01*
X145724609Y-121240001D01*
X145744136Y-121463200D01*
X145744137Y-121463208D01*
X145802126Y-121679625D01*
X145802127Y-121679627D01*
X145802128Y-121679630D01*
X145830729Y-121740965D01*
X145896819Y-121882696D01*
X145896821Y-121882700D01*
X146025329Y-122066228D01*
X146025334Y-122066234D01*
X146183765Y-122224665D01*
X146183771Y-122224670D01*
X146367299Y-122353178D01*
X146367301Y-122353179D01*
X146367304Y-122353181D01*
X146570370Y-122447872D01*
X146786794Y-122505863D01*
X146946226Y-122519811D01*
X147009998Y-122525391D01*
X147010000Y-122525391D01*
X147010002Y-122525391D01*
X147065801Y-122520509D01*
X147233206Y-122505863D01*
X147449630Y-122447872D01*
X147652696Y-122353181D01*
X147836233Y-122224667D01*
X147994667Y-122066233D01*
X148123181Y-121882696D01*
X148217872Y-121679630D01*
X148275863Y-121463206D01*
X148295391Y-121240000D01*
X148275863Y-121016794D01*
X148217872Y-120800370D01*
X148123181Y-120597305D01*
X147994667Y-120413767D01*
X147836233Y-120255333D01*
X147836229Y-120255330D01*
X147836228Y-120255329D01*
X147652700Y-120126821D01*
X147652692Y-120126817D01*
X147606988Y-120105505D01*
X147557399Y-120082381D01*
X147504960Y-120036210D01*
X147485808Y-119969017D01*
X147506023Y-119902135D01*
X147557400Y-119857618D01*
X147559864Y-119856469D01*
X147652696Y-119813181D01*
X147836233Y-119684667D01*
X147994667Y-119526233D01*
X148123181Y-119342696D01*
X148217872Y-119139630D01*
X148275863Y-118923206D01*
X148295391Y-118700000D01*
X148275863Y-118476794D01*
X148217872Y-118260370D01*
X148123181Y-118057305D01*
X147994667Y-117873767D01*
X147836233Y-117715333D01*
X147836229Y-117715330D01*
X147836228Y-117715329D01*
X147652700Y-117586821D01*
X147652692Y-117586817D01*
X147557400Y-117542382D01*
X147504960Y-117496210D01*
X147485808Y-117429017D01*
X147506023Y-117362135D01*
X147557400Y-117317618D01*
X147652696Y-117273181D01*
X147836233Y-117144667D01*
X147994667Y-116986233D01*
X148123181Y-116802696D01*
X148217872Y-116599630D01*
X148275863Y-116383206D01*
X148295391Y-116160000D01*
X148275863Y-115936794D01*
X148244995Y-115821593D01*
X148246658Y-115751744D01*
X148285821Y-115693881D01*
X148350049Y-115666377D01*
X148364770Y-115665500D01*
X153558381Y-115665500D01*
X153558382Y-115665499D01*
X153708205Y-115635698D01*
X153849337Y-115577239D01*
X153976352Y-115492370D01*
X157376903Y-112091819D01*
X157438226Y-112058334D01*
X157464584Y-112055500D01*
X158756381Y-112055500D01*
X158756382Y-112055499D01*
X158906205Y-112025698D01*
X159047337Y-111967239D01*
X159174352Y-111882370D01*
X159282370Y-111774352D01*
X159367239Y-111647337D01*
X159425698Y-111506205D01*
X159455500Y-111356380D01*
X159455500Y-111259632D01*
X159464939Y-111212179D01*
X159475698Y-111186205D01*
X159505500Y-111036380D01*
X159505500Y-110883620D01*
X159505500Y-110287299D01*
X159525185Y-110220260D01*
X159577989Y-110174505D01*
X159629500Y-110163299D01*
X160801871Y-110163299D01*
X160801872Y-110163299D01*
X160861483Y-110156891D01*
X160996331Y-110106596D01*
X161111546Y-110020346D01*
X161197796Y-109905131D01*
X161248091Y-109770283D01*
X161254500Y-109710673D01*
X161254499Y-108106935D01*
X163825500Y-108106935D01*
X163825500Y-109710670D01*
X163825501Y-109710676D01*
X163831908Y-109770283D01*
X163882202Y-109905128D01*
X163882206Y-109905135D01*
X163968452Y-110020344D01*
X163968455Y-110020347D01*
X164083664Y-110106593D01*
X164083671Y-110106597D01*
X164218517Y-110156891D01*
X164218516Y-110156891D01*
X164225444Y-110157635D01*
X164278127Y-110163300D01*
X165881872Y-110163299D01*
X165941483Y-110156891D01*
X166076331Y-110106596D01*
X166191546Y-110020346D01*
X166277796Y-109905131D01*
X166328091Y-109770283D01*
X166334500Y-109710673D01*
X166334499Y-108106928D01*
X166328091Y-108047317D01*
X166277796Y-107912469D01*
X166277795Y-107912468D01*
X166277793Y-107912464D01*
X166191547Y-107797255D01*
X166191544Y-107797252D01*
X166076335Y-107711006D01*
X166076328Y-107711002D01*
X165941482Y-107660708D01*
X165941483Y-107660708D01*
X165881883Y-107654301D01*
X165881881Y-107654300D01*
X165881873Y-107654300D01*
X165881864Y-107654300D01*
X164278129Y-107654300D01*
X164278123Y-107654301D01*
X164218516Y-107660708D01*
X164083671Y-107711002D01*
X164083664Y-107711006D01*
X163968455Y-107797252D01*
X163968452Y-107797255D01*
X163882206Y-107912464D01*
X163882202Y-107912471D01*
X163831908Y-108047317D01*
X163825501Y-108106916D01*
X163825501Y-108106923D01*
X163825500Y-108106935D01*
X161254499Y-108106935D01*
X161254499Y-108106928D01*
X161248091Y-108047317D01*
X161197796Y-107912469D01*
X161197795Y-107912468D01*
X161197793Y-107912464D01*
X161111547Y-107797255D01*
X161111544Y-107797252D01*
X160996335Y-107711006D01*
X160996328Y-107711002D01*
X160861482Y-107660708D01*
X160861483Y-107660708D01*
X160801883Y-107654301D01*
X160801881Y-107654300D01*
X160801873Y-107654300D01*
X160801865Y-107654300D01*
X159629500Y-107654300D01*
X159562461Y-107634615D01*
X159516706Y-107581811D01*
X159505500Y-107530300D01*
X159505500Y-102863303D01*
X159505965Y-102852574D01*
X159506220Y-102849630D01*
X159509008Y-102817539D01*
X159505696Y-102758629D01*
X159505500Y-102751668D01*
X159505500Y-102133619D01*
X159505499Y-102133615D01*
X159503215Y-102122135D01*
X159475698Y-101983795D01*
X159468064Y-101965365D01*
X159458820Y-101924876D01*
X159455322Y-101862647D01*
X159451563Y-101823309D01*
X159451561Y-101823305D01*
X159450519Y-101817771D01*
X159450721Y-101817732D01*
X159448081Y-101803836D01*
X159435300Y-101674066D01*
X159435297Y-101674056D01*
X159434231Y-101668695D01*
X159440457Y-101599103D01*
X159483318Y-101543924D01*
X159549207Y-101520678D01*
X159555848Y-101520500D01*
X169565831Y-101520500D01*
X169565847Y-101520501D01*
X169573443Y-101520501D01*
X169731554Y-101520501D01*
X169731557Y-101520501D01*
X169884285Y-101479577D01*
X169934404Y-101450639D01*
X170021216Y-101400520D01*
X170133020Y-101288716D01*
X170133020Y-101288714D01*
X170143228Y-101278507D01*
X170143230Y-101278504D01*
X170856950Y-100564783D01*
X170892337Y-100540032D01*
X171123212Y-100432664D01*
X171192300Y-100422244D01*
X171256055Y-100450830D01*
X171294233Y-100509347D01*
X171299500Y-100545101D01*
X171299500Y-128455500D01*
X171279815Y-128522539D01*
X171227011Y-128568294D01*
X171175500Y-128579500D01*
X119624500Y-128579500D01*
X119557461Y-128559815D01*
X119511706Y-128507011D01*
X119500500Y-128455500D01*
X119500500Y-125773713D01*
X120649500Y-125773713D01*
X120649500Y-125986286D01*
X120682753Y-126196239D01*
X120748444Y-126398414D01*
X120844951Y-126587820D01*
X120969890Y-126759786D01*
X121120213Y-126910109D01*
X121292179Y-127035048D01*
X121292181Y-127035049D01*
X121292184Y-127035051D01*
X121481588Y-127131557D01*
X121683757Y-127197246D01*
X121893713Y-127230500D01*
X121893714Y-127230500D01*
X122106286Y-127230500D01*
X122106287Y-127230500D01*
X122316243Y-127197246D01*
X122518412Y-127131557D01*
X122707816Y-127035051D01*
X122729789Y-127019086D01*
X122879786Y-126910109D01*
X122879788Y-126910106D01*
X122879792Y-126910104D01*
X123030104Y-126759792D01*
X123030106Y-126759788D01*
X123030109Y-126759786D01*
X123155048Y-126587820D01*
X123155047Y-126587820D01*
X123155051Y-126587816D01*
X123251557Y-126398412D01*
X123317246Y-126196243D01*
X123350500Y-125986287D01*
X123350500Y-125773713D01*
X167449500Y-125773713D01*
X167449500Y-125986286D01*
X167482753Y-126196239D01*
X167548444Y-126398414D01*
X167644951Y-126587820D01*
X167769890Y-126759786D01*
X167920213Y-126910109D01*
X168092179Y-127035048D01*
X168092181Y-127035049D01*
X168092184Y-127035051D01*
X168281588Y-127131557D01*
X168483757Y-127197246D01*
X168693713Y-127230500D01*
X168693714Y-127230500D01*
X168906286Y-127230500D01*
X168906287Y-127230500D01*
X169116243Y-127197246D01*
X169318412Y-127131557D01*
X169507816Y-127035051D01*
X169529789Y-127019086D01*
X169679786Y-126910109D01*
X169679788Y-126910106D01*
X169679792Y-126910104D01*
X169830104Y-126759792D01*
X169830106Y-126759788D01*
X169830109Y-126759786D01*
X169955048Y-126587820D01*
X169955047Y-126587820D01*
X169955051Y-126587816D01*
X170051557Y-126398412D01*
X170117246Y-126196243D01*
X170150500Y-125986287D01*
X170150500Y-125773713D01*
X170117246Y-125563757D01*
X170051557Y-125361588D01*
X169955051Y-125172184D01*
X169955049Y-125172181D01*
X169955048Y-125172179D01*
X169830109Y-125000213D01*
X169679786Y-124849890D01*
X169507820Y-124724951D01*
X169318414Y-124628444D01*
X169318413Y-124628443D01*
X169318412Y-124628443D01*
X169116243Y-124562754D01*
X169116241Y-124562753D01*
X169116240Y-124562753D01*
X168954957Y-124537208D01*
X168906287Y-124529500D01*
X168693713Y-124529500D01*
X168645042Y-124537208D01*
X168483760Y-124562753D01*
X168281585Y-124628444D01*
X168092179Y-124724951D01*
X167920213Y-124849890D01*
X167769890Y-125000213D01*
X167644951Y-125172179D01*
X167548444Y-125361585D01*
X167482753Y-125563760D01*
X167449500Y-125773713D01*
X123350500Y-125773713D01*
X123317246Y-125563757D01*
X123251557Y-125361588D01*
X123155051Y-125172184D01*
X123155049Y-125172181D01*
X123155048Y-125172179D01*
X123030109Y-125000213D01*
X122879786Y-124849890D01*
X122707820Y-124724951D01*
X122518414Y-124628444D01*
X122518413Y-124628443D01*
X122518412Y-124628443D01*
X122316243Y-124562754D01*
X122316241Y-124562753D01*
X122316240Y-124562753D01*
X122154957Y-124537208D01*
X122106287Y-124529500D01*
X121893713Y-124529500D01*
X121845042Y-124537208D01*
X121683760Y-124562753D01*
X121481585Y-124628444D01*
X121292179Y-124724951D01*
X121120213Y-124849890D01*
X120969890Y-125000213D01*
X120844951Y-125172179D01*
X120748444Y-125361585D01*
X120682753Y-125563760D01*
X120649500Y-125773713D01*
X119500500Y-125773713D01*
X119500500Y-78059998D01*
X120324609Y-78059998D01*
X120324609Y-78060001D01*
X120344136Y-78283200D01*
X120344137Y-78283208D01*
X120402126Y-78499625D01*
X120402127Y-78499627D01*
X120402128Y-78499630D01*
X120475859Y-78657746D01*
X120496819Y-78702696D01*
X120496821Y-78702700D01*
X120625329Y-78886228D01*
X120625334Y-78886234D01*
X120783765Y-79044665D01*
X120783771Y-79044670D01*
X120967299Y-79173178D01*
X120967301Y-79173179D01*
X120967304Y-79173181D01*
X121062600Y-79217618D01*
X121115039Y-79263790D01*
X121134191Y-79330984D01*
X121113975Y-79397865D01*
X121062600Y-79442382D01*
X120967306Y-79486818D01*
X120967304Y-79486819D01*
X120783764Y-79615334D01*
X120625334Y-79773764D01*
X120496819Y-79957304D01*
X120496818Y-79957306D01*
X120402129Y-80160368D01*
X120402126Y-80160374D01*
X120344137Y-80376791D01*
X120344136Y-80376799D01*
X120324609Y-80599998D01*
X120324609Y-80600001D01*
X120344136Y-80823200D01*
X120344137Y-80823208D01*
X120402126Y-81039625D01*
X120402127Y-81039627D01*
X120402128Y-81039630D01*
X120492382Y-81233181D01*
X120496819Y-81242696D01*
X120496821Y-81242700D01*
X120625329Y-81426228D01*
X120625334Y-81426234D01*
X120783765Y-81584665D01*
X120783771Y-81584670D01*
X120967299Y-81713178D01*
X120967301Y-81713179D01*
X120967304Y-81713181D01*
X121062600Y-81757618D01*
X121115039Y-81803790D01*
X121134191Y-81870984D01*
X121113975Y-81937865D01*
X121062600Y-81982382D01*
X120967306Y-82026818D01*
X120967304Y-82026819D01*
X120783764Y-82155334D01*
X120625334Y-82313764D01*
X120496819Y-82497304D01*
X120496818Y-82497306D01*
X120402129Y-82700368D01*
X120402126Y-82700374D01*
X120344137Y-82916791D01*
X120344136Y-82916799D01*
X120324609Y-83139998D01*
X120324609Y-83140001D01*
X120344136Y-83363200D01*
X120344137Y-83363208D01*
X120402126Y-83579625D01*
X120402127Y-83579627D01*
X120402128Y-83579630D01*
X120496819Y-83782696D01*
X120496821Y-83782700D01*
X120625329Y-83966228D01*
X120625334Y-83966234D01*
X120783765Y-84124665D01*
X120783771Y-84124670D01*
X120967299Y-84253178D01*
X120967301Y-84253179D01*
X120967304Y-84253181D01*
X121062600Y-84297618D01*
X121115039Y-84343790D01*
X121134191Y-84410984D01*
X121113975Y-84477865D01*
X121062600Y-84522382D01*
X120967306Y-84566818D01*
X120967304Y-84566819D01*
X120783764Y-84695334D01*
X120625334Y-84853764D01*
X120496819Y-85037304D01*
X120496818Y-85037306D01*
X120402129Y-85240368D01*
X120402126Y-85240374D01*
X120344137Y-85456791D01*
X120344136Y-85456799D01*
X120324609Y-85679998D01*
X120324609Y-85680001D01*
X120344136Y-85903200D01*
X120344137Y-85903208D01*
X120402126Y-86119625D01*
X120402127Y-86119627D01*
X120402128Y-86119630D01*
X120489540Y-86307086D01*
X120496819Y-86322696D01*
X120496821Y-86322700D01*
X120625329Y-86506228D01*
X120625334Y-86506234D01*
X120783765Y-86664665D01*
X120783771Y-86664670D01*
X120967299Y-86793178D01*
X120967301Y-86793179D01*
X120967304Y-86793181D01*
X121062600Y-86837618D01*
X121115039Y-86883790D01*
X121134191Y-86950984D01*
X121113975Y-87017865D01*
X121062600Y-87062382D01*
X120967306Y-87106818D01*
X120967304Y-87106819D01*
X120783764Y-87235334D01*
X120625334Y-87393764D01*
X120496819Y-87577304D01*
X120496818Y-87577306D01*
X120402129Y-87780368D01*
X120402126Y-87780374D01*
X120344137Y-87996791D01*
X120344136Y-87996799D01*
X120324609Y-88219998D01*
X120324609Y-88220001D01*
X120344136Y-88443200D01*
X120344137Y-88443208D01*
X120402126Y-88659625D01*
X120402127Y-88659627D01*
X120402128Y-88659630D01*
X120456135Y-88775449D01*
X120496819Y-88862696D01*
X120496821Y-88862700D01*
X120625329Y-89046228D01*
X120625334Y-89046234D01*
X120783765Y-89204665D01*
X120783771Y-89204670D01*
X120967299Y-89333178D01*
X120967301Y-89333179D01*
X120967304Y-89333181D01*
X121062600Y-89377618D01*
X121115039Y-89423790D01*
X121134191Y-89490984D01*
X121113975Y-89557865D01*
X121062600Y-89602382D01*
X120967306Y-89646818D01*
X120967304Y-89646819D01*
X120783764Y-89775334D01*
X120625334Y-89933764D01*
X120496819Y-90117304D01*
X120496818Y-90117306D01*
X120402129Y-90320368D01*
X120402126Y-90320374D01*
X120344137Y-90536791D01*
X120344136Y-90536799D01*
X120324609Y-90759998D01*
X120324609Y-90760001D01*
X120344136Y-90983200D01*
X120344137Y-90983208D01*
X120402126Y-91199625D01*
X120402127Y-91199627D01*
X120402128Y-91199630D01*
X120496819Y-91402696D01*
X120496821Y-91402700D01*
X120625329Y-91586228D01*
X120625334Y-91586234D01*
X120783765Y-91744665D01*
X120783771Y-91744670D01*
X120967299Y-91873178D01*
X120967301Y-91873179D01*
X120967304Y-91873181D01*
X121062600Y-91917618D01*
X121115039Y-91963790D01*
X121134191Y-92030984D01*
X121113975Y-92097865D01*
X121062600Y-92142382D01*
X120967306Y-92186818D01*
X120967304Y-92186819D01*
X120783764Y-92315334D01*
X120625334Y-92473764D01*
X120496819Y-92657304D01*
X120496818Y-92657306D01*
X120402129Y-92860368D01*
X120402126Y-92860374D01*
X120344137Y-93076791D01*
X120344136Y-93076799D01*
X120324609Y-93299998D01*
X120324609Y-93300001D01*
X120344136Y-93523200D01*
X120344137Y-93523208D01*
X120402126Y-93739625D01*
X120402127Y-93739627D01*
X120402128Y-93739630D01*
X120489261Y-93926488D01*
X120496819Y-93942696D01*
X120496821Y-93942700D01*
X120625329Y-94126228D01*
X120625334Y-94126234D01*
X120783765Y-94284665D01*
X120783771Y-94284670D01*
X120967299Y-94413178D01*
X120967301Y-94413179D01*
X120967304Y-94413181D01*
X121062600Y-94457618D01*
X121115039Y-94503790D01*
X121134191Y-94570984D01*
X121113975Y-94637865D01*
X121062600Y-94682382D01*
X120967306Y-94726818D01*
X120967304Y-94726819D01*
X120783764Y-94855334D01*
X120625334Y-95013764D01*
X120496819Y-95197304D01*
X120496818Y-95197306D01*
X120402129Y-95400368D01*
X120402126Y-95400374D01*
X120344137Y-95616791D01*
X120344136Y-95616799D01*
X120324609Y-95839998D01*
X120324609Y-95840001D01*
X120344136Y-96063200D01*
X120344137Y-96063208D01*
X120402126Y-96279625D01*
X120402127Y-96279627D01*
X120402128Y-96279630D01*
X120496819Y-96482696D01*
X120496821Y-96482700D01*
X120625329Y-96666228D01*
X120625334Y-96666234D01*
X120783765Y-96824665D01*
X120783771Y-96824670D01*
X120967299Y-96953178D01*
X120967301Y-96953179D01*
X120967304Y-96953181D01*
X121062600Y-96997618D01*
X121115039Y-97043790D01*
X121134191Y-97110984D01*
X121113975Y-97177865D01*
X121062600Y-97222382D01*
X120967306Y-97266818D01*
X120967304Y-97266819D01*
X120783764Y-97395334D01*
X120625334Y-97553764D01*
X120496819Y-97737304D01*
X120496818Y-97737306D01*
X120402129Y-97940368D01*
X120402126Y-97940374D01*
X120344137Y-98156791D01*
X120344136Y-98156799D01*
X120324609Y-98379998D01*
X120324609Y-98380001D01*
X120344136Y-98603200D01*
X120344137Y-98603208D01*
X120402126Y-98819625D01*
X120402127Y-98819627D01*
X120402128Y-98819630D01*
X120414300Y-98845733D01*
X120496819Y-99022696D01*
X120496821Y-99022700D01*
X120625329Y-99206228D01*
X120625334Y-99206234D01*
X120783765Y-99364665D01*
X120783771Y-99364670D01*
X120967299Y-99493178D01*
X120967301Y-99493179D01*
X120967304Y-99493181D01*
X121058478Y-99535696D01*
X121062600Y-99537618D01*
X121115039Y-99583790D01*
X121134191Y-99650984D01*
X121113975Y-99717865D01*
X121062600Y-99762382D01*
X120967306Y-99806818D01*
X120967304Y-99806819D01*
X120783764Y-99935334D01*
X120625334Y-100093764D01*
X120496819Y-100277304D01*
X120496818Y-100277306D01*
X120402129Y-100480368D01*
X120402126Y-100480374D01*
X120344137Y-100696791D01*
X120344136Y-100696799D01*
X120324609Y-100919998D01*
X120324609Y-100920001D01*
X120344136Y-101143200D01*
X120344137Y-101143208D01*
X120402126Y-101359625D01*
X120402127Y-101359627D01*
X120402128Y-101359630D01*
X120496819Y-101562696D01*
X120496821Y-101562700D01*
X120625329Y-101746228D01*
X120625334Y-101746234D01*
X120783765Y-101904665D01*
X120783771Y-101904670D01*
X120967299Y-102033178D01*
X120967301Y-102033179D01*
X120967304Y-102033181D01*
X121062600Y-102077618D01*
X121115039Y-102123790D01*
X121134191Y-102190984D01*
X121113975Y-102257865D01*
X121062600Y-102302382D01*
X120967306Y-102346818D01*
X120967304Y-102346819D01*
X120783764Y-102475334D01*
X120625334Y-102633764D01*
X120496819Y-102817304D01*
X120496818Y-102817306D01*
X120402129Y-103020368D01*
X120402126Y-103020374D01*
X120344137Y-103236791D01*
X120344136Y-103236799D01*
X120324609Y-103459998D01*
X120324609Y-103460001D01*
X120344136Y-103683200D01*
X120344137Y-103683208D01*
X120402126Y-103899625D01*
X120402127Y-103899627D01*
X120402128Y-103899630D01*
X120485525Y-104078475D01*
X120496819Y-104102696D01*
X120496821Y-104102700D01*
X120625329Y-104286228D01*
X120625334Y-104286234D01*
X120783765Y-104444665D01*
X120783771Y-104444670D01*
X120967299Y-104573178D01*
X120967301Y-104573179D01*
X120967304Y-104573181D01*
X121062600Y-104617618D01*
X121115039Y-104663790D01*
X121134191Y-104730984D01*
X121113975Y-104797865D01*
X121062600Y-104842382D01*
X120967306Y-104886818D01*
X120967304Y-104886819D01*
X120783764Y-105015334D01*
X120625334Y-105173764D01*
X120496819Y-105357304D01*
X120496818Y-105357306D01*
X120402129Y-105560368D01*
X120402126Y-105560374D01*
X120344137Y-105776791D01*
X120344136Y-105776799D01*
X120324609Y-105999998D01*
X120324609Y-106000001D01*
X120344136Y-106223200D01*
X120344137Y-106223208D01*
X120402126Y-106439625D01*
X120402127Y-106439627D01*
X120402128Y-106439630D01*
X120496819Y-106642696D01*
X120496821Y-106642700D01*
X120625329Y-106826228D01*
X120625334Y-106826234D01*
X120783765Y-106984665D01*
X120783771Y-106984670D01*
X120967299Y-107113178D01*
X120967301Y-107113179D01*
X120967304Y-107113181D01*
X121170370Y-107207872D01*
X121386794Y-107265863D01*
X121546226Y-107279811D01*
X121609998Y-107285391D01*
X121610000Y-107285391D01*
X121610002Y-107285391D01*
X121665801Y-107280509D01*
X121833206Y-107265863D01*
X122049630Y-107207872D01*
X122252696Y-107113181D01*
X122436233Y-106984667D01*
X122594667Y-106826233D01*
X122723181Y-106642696D01*
X122817872Y-106439630D01*
X122875863Y-106223206D01*
X122895391Y-106000000D01*
X122875863Y-105776794D01*
X122817872Y-105560370D01*
X122723181Y-105357305D01*
X122610108Y-105195819D01*
X122594668Y-105173768D01*
X122580400Y-105159500D01*
X122436233Y-105015333D01*
X122436229Y-105015330D01*
X122436228Y-105015329D01*
X122252700Y-104886821D01*
X122252692Y-104886817D01*
X122157400Y-104842382D01*
X122104960Y-104796210D01*
X122085808Y-104729017D01*
X122106023Y-104662135D01*
X122157400Y-104617618D01*
X122252696Y-104573181D01*
X122436233Y-104444667D01*
X122594667Y-104286233D01*
X122723181Y-104102696D01*
X122817872Y-103899630D01*
X122875863Y-103683206D01*
X122895391Y-103460000D01*
X122875863Y-103236794D01*
X122817872Y-103020370D01*
X122723181Y-102817305D01*
X122594667Y-102633767D01*
X122436233Y-102475333D01*
X122436229Y-102475330D01*
X122436228Y-102475329D01*
X122252700Y-102346821D01*
X122252692Y-102346817D01*
X122206988Y-102325505D01*
X122157399Y-102302381D01*
X122104960Y-102256210D01*
X122085808Y-102189017D01*
X122106023Y-102122135D01*
X122157400Y-102077618D01*
X122252696Y-102033181D01*
X122436233Y-101904667D01*
X122594667Y-101746233D01*
X122723181Y-101562696D01*
X122817872Y-101359630D01*
X122875863Y-101143206D01*
X122895391Y-100920000D01*
X122875863Y-100696794D01*
X122817872Y-100480370D01*
X122723181Y-100277305D01*
X122594667Y-100093767D01*
X122436233Y-99935333D01*
X122436229Y-99935330D01*
X122436228Y-99935329D01*
X122252700Y-99806821D01*
X122252692Y-99806817D01*
X122157400Y-99762382D01*
X122104960Y-99716210D01*
X122085808Y-99649017D01*
X122106023Y-99582135D01*
X122157400Y-99537618D01*
X122161522Y-99535696D01*
X122252696Y-99493181D01*
X122436233Y-99364667D01*
X122594667Y-99206233D01*
X122723181Y-99022696D01*
X122817872Y-98819630D01*
X122875863Y-98603206D01*
X122895391Y-98380000D01*
X122875863Y-98156794D01*
X122817872Y-97940370D01*
X122723181Y-97737305D01*
X122594667Y-97553767D01*
X122436233Y-97395333D01*
X122436229Y-97395330D01*
X122436228Y-97395329D01*
X122252700Y-97266821D01*
X122252692Y-97266817D01*
X122157400Y-97222382D01*
X122104960Y-97176210D01*
X122085808Y-97109017D01*
X122106023Y-97042135D01*
X122157400Y-96997618D01*
X122252696Y-96953181D01*
X122436233Y-96824667D01*
X122594667Y-96666233D01*
X122723181Y-96482696D01*
X122817872Y-96279630D01*
X122875863Y-96063206D01*
X122895391Y-95840000D01*
X122875863Y-95616794D01*
X122817872Y-95400370D01*
X122723181Y-95197305D01*
X122594667Y-95013767D01*
X122436233Y-94855333D01*
X122436229Y-94855330D01*
X122436228Y-94855329D01*
X122252700Y-94726821D01*
X122252692Y-94726817D01*
X122157400Y-94682382D01*
X122104960Y-94636210D01*
X122085808Y-94569017D01*
X122106023Y-94502135D01*
X122157400Y-94457618D01*
X122252696Y-94413181D01*
X122436233Y-94284667D01*
X122594667Y-94126233D01*
X122723181Y-93942696D01*
X122817872Y-93739630D01*
X122875863Y-93523206D01*
X122895391Y-93300000D01*
X122891305Y-93253302D01*
X122875863Y-93076799D01*
X122875863Y-93076794D01*
X122817872Y-92860370D01*
X122723181Y-92657305D01*
X122658924Y-92565536D01*
X122594668Y-92473768D01*
X122544840Y-92423940D01*
X122436233Y-92315333D01*
X122436229Y-92315330D01*
X122436228Y-92315329D01*
X122252700Y-92186821D01*
X122252692Y-92186817D01*
X122157400Y-92142382D01*
X122104960Y-92096210D01*
X122085808Y-92029017D01*
X122106023Y-91962135D01*
X122157400Y-91917618D01*
X122252696Y-91873181D01*
X122436233Y-91744667D01*
X122594667Y-91586233D01*
X122723181Y-91402696D01*
X122817872Y-91199630D01*
X122875863Y-90983206D01*
X122895391Y-90760000D01*
X122875863Y-90536794D01*
X122817872Y-90320370D01*
X122723181Y-90117305D01*
X122594667Y-89933767D01*
X122436233Y-89775333D01*
X122436229Y-89775330D01*
X122436228Y-89775329D01*
X122252700Y-89646821D01*
X122252692Y-89646817D01*
X122157400Y-89602382D01*
X122104960Y-89556210D01*
X122085808Y-89489017D01*
X122106023Y-89422135D01*
X122157400Y-89377618D01*
X122252696Y-89333181D01*
X122436233Y-89204667D01*
X122594667Y-89046233D01*
X122723181Y-88862696D01*
X122817872Y-88659630D01*
X122875863Y-88443206D01*
X122895391Y-88220000D01*
X122875863Y-87996794D01*
X122817872Y-87780370D01*
X122723181Y-87577305D01*
X122658924Y-87485536D01*
X122594668Y-87393768D01*
X122519613Y-87318713D01*
X122436233Y-87235333D01*
X122436229Y-87235330D01*
X122436228Y-87235329D01*
X122252700Y-87106821D01*
X122252692Y-87106817D01*
X122157400Y-87062382D01*
X122104960Y-87016210D01*
X122085808Y-86949017D01*
X122106023Y-86882135D01*
X122157400Y-86837618D01*
X122252696Y-86793181D01*
X122436233Y-86664667D01*
X122594667Y-86506233D01*
X122723181Y-86322696D01*
X122817872Y-86119630D01*
X122875863Y-85903206D01*
X122895391Y-85680000D01*
X122875863Y-85456794D01*
X122817872Y-85240370D01*
X122723181Y-85037305D01*
X122594667Y-84853767D01*
X122436233Y-84695333D01*
X122436229Y-84695330D01*
X122436228Y-84695329D01*
X122252700Y-84566821D01*
X122252692Y-84566817D01*
X122157400Y-84522382D01*
X122104960Y-84476210D01*
X122085808Y-84409017D01*
X122106023Y-84342135D01*
X122157400Y-84297618D01*
X122252696Y-84253181D01*
X122436233Y-84124667D01*
X122594667Y-83966233D01*
X122723181Y-83782696D01*
X122817872Y-83579630D01*
X122875863Y-83363206D01*
X122895391Y-83140000D01*
X122875863Y-82916794D01*
X122817872Y-82700370D01*
X122723181Y-82497305D01*
X122594667Y-82313767D01*
X122436233Y-82155333D01*
X122436229Y-82155330D01*
X122436228Y-82155329D01*
X122252700Y-82026821D01*
X122252692Y-82026817D01*
X122157400Y-81982382D01*
X122104960Y-81936210D01*
X122085808Y-81869017D01*
X122106023Y-81802135D01*
X122157400Y-81757618D01*
X122252696Y-81713181D01*
X122436233Y-81584667D01*
X122594667Y-81426233D01*
X122723181Y-81242696D01*
X122817872Y-81039630D01*
X122875863Y-80823206D01*
X122895391Y-80600000D01*
X122875863Y-80376794D01*
X122817872Y-80160370D01*
X122723181Y-79957305D01*
X122594667Y-79773767D01*
X122436233Y-79615333D01*
X122436229Y-79615330D01*
X122436228Y-79615329D01*
X122252700Y-79486821D01*
X122252692Y-79486817D01*
X122206988Y-79465505D01*
X122157399Y-79442381D01*
X122104960Y-79396210D01*
X122085808Y-79329017D01*
X122106023Y-79262135D01*
X122157400Y-79217618D01*
X122252696Y-79173181D01*
X122436233Y-79044667D01*
X122594667Y-78886233D01*
X122723181Y-78702696D01*
X122817872Y-78499630D01*
X122875863Y-78283206D01*
X122895391Y-78060000D01*
X122875863Y-77836794D01*
X122817872Y-77620370D01*
X122723181Y-77417305D01*
X122594667Y-77233767D01*
X122436233Y-77075333D01*
X122436229Y-77075330D01*
X122436228Y-77075329D01*
X122365884Y-77026074D01*
X122322259Y-76971497D01*
X122315065Y-76901999D01*
X122346588Y-76839644D01*
X122406817Y-76804230D01*
X122434570Y-76800800D01*
X122434564Y-76800676D01*
X122436347Y-76800580D01*
X122437007Y-76800499D01*
X122437871Y-76800499D01*
X122437872Y-76800499D01*
X122497483Y-76794091D01*
X122517665Y-76786562D01*
X122533479Y-76781837D01*
X122536331Y-76781188D01*
X122554264Y-76773175D01*
X122561473Y-76770223D01*
X122632331Y-76743796D01*
X122639462Y-76738457D01*
X122663203Y-76724502D01*
X122667696Y-76722496D01*
X122801277Y-76638190D01*
X122868476Y-76619058D01*
X122935351Y-76639293D01*
X122955138Y-76655373D01*
X128534139Y-82234374D01*
X128534149Y-82234385D01*
X128538479Y-82238715D01*
X128538480Y-82238716D01*
X128650284Y-82350520D01*
X128737095Y-82400639D01*
X128737097Y-82400641D01*
X128775151Y-82422611D01*
X128787215Y-82429577D01*
X128939943Y-82470500D01*
X129098057Y-82470500D01*
X145714677Y-82470500D01*
X145781716Y-82490185D01*
X145827471Y-82542989D01*
X145837415Y-82612147D01*
X145827059Y-82646904D01*
X145802130Y-82700363D01*
X145802126Y-82700374D01*
X145744137Y-82916791D01*
X145744136Y-82916799D01*
X145724609Y-83139998D01*
X145724609Y-83140001D01*
X145744136Y-83363200D01*
X145744137Y-83363208D01*
X145802126Y-83579625D01*
X145802127Y-83579627D01*
X145802128Y-83579630D01*
X145896819Y-83782696D01*
X145896821Y-83782700D01*
X146025329Y-83966228D01*
X146025334Y-83966234D01*
X146183765Y-84124665D01*
X146183771Y-84124670D01*
X146367299Y-84253178D01*
X146367301Y-84253179D01*
X146367304Y-84253181D01*
X146462600Y-84297618D01*
X146515039Y-84343790D01*
X146534191Y-84410984D01*
X146513975Y-84477865D01*
X146462600Y-84522382D01*
X146367306Y-84566818D01*
X146367304Y-84566819D01*
X146183764Y-84695334D01*
X146025334Y-84853764D01*
X145896819Y-85037304D01*
X145896818Y-85037306D01*
X145802129Y-85240368D01*
X145802126Y-85240374D01*
X145744137Y-85456791D01*
X145744136Y-85456799D01*
X145724609Y-85679998D01*
X145724609Y-85680001D01*
X145744136Y-85903200D01*
X145744137Y-85903208D01*
X145802126Y-86119625D01*
X145802130Y-86119636D01*
X145827059Y-86173096D01*
X145837551Y-86242173D01*
X145809031Y-86305957D01*
X145750554Y-86344196D01*
X145714677Y-86349500D01*
X144803751Y-86349500D01*
X144736712Y-86329815D01*
X144691315Y-86277788D01*
X144674752Y-86242173D01*
X144599681Y-86080745D01*
X144535246Y-85942189D01*
X144535236Y-85942169D01*
X144528874Y-85929873D01*
X144521970Y-85913855D01*
X144520789Y-85910478D01*
X144424816Y-85757738D01*
X144297262Y-85630184D01*
X144271241Y-85613834D01*
X144144523Y-85534211D01*
X143974254Y-85474631D01*
X143974249Y-85474630D01*
X143795004Y-85454435D01*
X143794996Y-85454435D01*
X143615750Y-85474630D01*
X143615745Y-85474631D01*
X143445476Y-85534211D01*
X143292737Y-85630184D01*
X143165184Y-85757737D01*
X143069211Y-85910476D01*
X143009631Y-86080745D01*
X143009630Y-86080750D01*
X142989435Y-86259996D01*
X142989435Y-86260003D01*
X143009630Y-86439249D01*
X143009631Y-86439254D01*
X143069211Y-86609523D01*
X143165184Y-86762262D01*
X143292738Y-86889816D01*
X143445478Y-86985789D01*
X143451864Y-86988023D01*
X143473085Y-86998468D01*
X143473297Y-86998087D01*
X143477167Y-87000235D01*
X143634575Y-87073438D01*
X143634576Y-87073438D01*
X143847662Y-87172533D01*
X143883052Y-87197287D01*
X144000139Y-87314374D01*
X144000149Y-87314385D01*
X144004479Y-87318715D01*
X144004480Y-87318716D01*
X144116284Y-87430520D01*
X144116286Y-87430521D01*
X144116290Y-87430524D01*
X144253209Y-87509573D01*
X144253216Y-87509577D01*
X144365019Y-87539534D01*
X144405942Y-87550500D01*
X144405943Y-87550500D01*
X145714677Y-87550500D01*
X145781716Y-87570185D01*
X145827471Y-87622989D01*
X145837415Y-87692147D01*
X145827059Y-87726904D01*
X145802130Y-87780363D01*
X145802126Y-87780374D01*
X145744137Y-87996791D01*
X145744136Y-87996799D01*
X145724609Y-88219998D01*
X145724609Y-88220001D01*
X145744136Y-88443200D01*
X145744137Y-88443208D01*
X145802126Y-88659625D01*
X145802127Y-88659627D01*
X145802128Y-88659630D01*
X145856135Y-88775449D01*
X145896819Y-88862696D01*
X145896821Y-88862700D01*
X146025329Y-89046228D01*
X146025334Y-89046234D01*
X146183765Y-89204665D01*
X146183771Y-89204670D01*
X146367299Y-89333178D01*
X146367301Y-89333179D01*
X146367304Y-89333181D01*
X146570370Y-89427872D01*
X146786794Y-89485863D01*
X146946226Y-89499811D01*
X147009998Y-89505391D01*
X147010000Y-89505391D01*
X147010002Y-89505391D01*
X147065801Y-89500509D01*
X147233206Y-89485863D01*
X147449630Y-89427872D01*
X147498515Y-89405075D01*
X147514457Y-89398941D01*
X147535410Y-89392499D01*
X148668786Y-88857370D01*
X148721729Y-88845500D01*
X149029548Y-88845500D01*
X149096587Y-88865185D01*
X149117229Y-88881819D01*
X149801263Y-89565855D01*
X149801267Y-89565858D01*
X149903708Y-89634308D01*
X149903715Y-89634312D01*
X149962253Y-89658559D01*
X150017548Y-89681463D01*
X150035592Y-89685052D01*
X150109986Y-89699850D01*
X150144370Y-89706690D01*
X150144195Y-89707564D01*
X150175252Y-89715982D01*
X150281975Y-89765102D01*
X150289738Y-89768596D01*
X150290113Y-89768761D01*
X150290119Y-89768763D01*
X150290121Y-89768764D01*
X150349491Y-89790564D01*
X150349495Y-89790565D01*
X150353111Y-89791098D01*
X150375976Y-89796729D01*
X150431941Y-89816313D01*
X150431947Y-89816314D01*
X150599997Y-89835249D01*
X150600000Y-89835249D01*
X150600003Y-89835249D01*
X150768056Y-89816314D01*
X150824021Y-89796731D01*
X150927690Y-89760456D01*
X150927692Y-89760454D01*
X150927694Y-89760454D01*
X150927697Y-89760452D01*
X151055738Y-89679998D01*
X151894532Y-89679998D01*
X151894532Y-89680001D01*
X151914364Y-89906686D01*
X151914366Y-89906697D01*
X151973258Y-90126488D01*
X151973261Y-90126497D01*
X152069431Y-90332732D01*
X152069432Y-90332734D01*
X152199954Y-90519141D01*
X152360858Y-90680045D01*
X152360861Y-90680047D01*
X152547266Y-90810568D01*
X152753504Y-90906739D01*
X152973308Y-90965635D01*
X153135230Y-90979801D01*
X153199998Y-90985468D01*
X153200000Y-90985468D01*
X153200002Y-90985468D01*
X153256673Y-90980509D01*
X153426692Y-90965635D01*
X153646496Y-90906739D01*
X153646502Y-90906736D01*
X153651584Y-90904887D01*
X153651626Y-90905004D01*
X153666357Y-90899687D01*
X154868764Y-90584550D01*
X154900201Y-90580500D01*
X158575638Y-90580500D01*
X158642677Y-90600185D01*
X158663319Y-90616819D01*
X162025960Y-93979461D01*
X162025961Y-93979462D01*
X162025964Y-93979464D01*
X162074981Y-94012216D01*
X162173453Y-94078013D01*
X162208846Y-94092673D01*
X162208847Y-94092674D01*
X162208848Y-94092674D01*
X162337334Y-94145895D01*
X162511303Y-94180499D01*
X162511307Y-94180500D01*
X162511308Y-94180500D01*
X162511309Y-94180500D01*
X165878577Y-94180500D01*
X165927549Y-94190580D01*
X167063331Y-94678833D01*
X167067286Y-94680513D01*
X167067417Y-94680568D01*
X167104109Y-94693636D01*
X167114878Y-94698053D01*
X167133504Y-94706739D01*
X167353308Y-94765635D01*
X167515230Y-94779801D01*
X167579998Y-94785468D01*
X167580000Y-94785468D01*
X167580002Y-94785468D01*
X167636673Y-94780509D01*
X167806692Y-94765635D01*
X168026496Y-94706739D01*
X168232734Y-94610568D01*
X168419139Y-94480047D01*
X168580047Y-94319139D01*
X168710568Y-94132734D01*
X168806739Y-93926496D01*
X168865635Y-93706692D01*
X168885468Y-93480000D01*
X168885467Y-93479994D01*
X168865635Y-93253313D01*
X168865635Y-93253308D01*
X168806739Y-93033504D01*
X168710568Y-92827266D01*
X168580047Y-92640861D01*
X168580045Y-92640858D01*
X168419141Y-92479954D01*
X168232734Y-92349432D01*
X168232732Y-92349431D01*
X168026497Y-92253261D01*
X168026488Y-92253258D01*
X167806697Y-92194366D01*
X167806693Y-92194365D01*
X167806692Y-92194365D01*
X167806691Y-92194364D01*
X167806686Y-92194364D01*
X167580002Y-92174532D01*
X167579998Y-92174532D01*
X167518785Y-92179887D01*
X167506093Y-92180345D01*
X167505555Y-92180336D01*
X167502556Y-92180291D01*
X167502555Y-92180291D01*
X167502551Y-92180291D01*
X167480048Y-92183175D01*
X167475095Y-92183709D01*
X167353308Y-92194365D01*
X167325177Y-92201902D01*
X167308854Y-92205120D01*
X166254023Y-92340336D01*
X165965718Y-92377294D01*
X165965712Y-92377294D01*
X165965680Y-92377299D01*
X165960209Y-92378122D01*
X165941777Y-92379500D01*
X163024362Y-92379500D01*
X162957323Y-92359815D01*
X162936681Y-92343181D01*
X159574039Y-88980538D01*
X159574038Y-88980537D01*
X159552433Y-88966101D01*
X159488199Y-88923182D01*
X159488197Y-88923181D01*
X159488197Y-88923180D01*
X159426544Y-88881985D01*
X159426542Y-88881984D01*
X159338459Y-88845500D01*
X159262666Y-88814105D01*
X159262658Y-88814103D01*
X159088696Y-88779500D01*
X159088692Y-88779500D01*
X159088691Y-88779500D01*
X154900202Y-88779500D01*
X154868765Y-88775449D01*
X154780478Y-88752310D01*
X154504404Y-88679954D01*
X153666354Y-88460310D01*
X153651628Y-88454996D01*
X153651586Y-88455113D01*
X153646500Y-88453262D01*
X153426697Y-88394366D01*
X153426693Y-88394365D01*
X153426692Y-88394365D01*
X153426691Y-88394364D01*
X153426686Y-88394364D01*
X153200002Y-88374532D01*
X153199998Y-88374532D01*
X152973313Y-88394364D01*
X152973302Y-88394366D01*
X152753511Y-88453258D01*
X152753502Y-88453261D01*
X152547267Y-88549431D01*
X152547265Y-88549432D01*
X152360858Y-88679954D01*
X152199954Y-88840858D01*
X152069432Y-89027265D01*
X152069431Y-89027267D01*
X151973261Y-89233502D01*
X151973258Y-89233511D01*
X151914366Y-89453302D01*
X151914364Y-89453313D01*
X151894532Y-89679998D01*
X151055738Y-89679998D01*
X151070884Y-89670481D01*
X151070885Y-89670480D01*
X151070890Y-89670477D01*
X151190477Y-89550890D01*
X151219066Y-89505391D01*
X151280452Y-89407697D01*
X151280454Y-89407694D01*
X151280454Y-89407692D01*
X151280456Y-89407690D01*
X151336313Y-89248059D01*
X151336313Y-89248058D01*
X151336314Y-89248056D01*
X151355249Y-89080002D01*
X151355249Y-89079997D01*
X151336314Y-88911943D01*
X151289970Y-88779500D01*
X151280456Y-88752310D01*
X151280455Y-88752309D01*
X151280454Y-88752305D01*
X151280452Y-88752302D01*
X151190481Y-88609115D01*
X151190476Y-88609109D01*
X151070890Y-88489523D01*
X151070884Y-88489518D01*
X150927697Y-88399547D01*
X150927694Y-88399545D01*
X150768056Y-88343685D01*
X150600003Y-88324751D01*
X150599997Y-88324751D01*
X150431945Y-88343685D01*
X150430635Y-88343985D01*
X150429764Y-88343931D01*
X150425022Y-88344466D01*
X150424928Y-88343635D01*
X150360896Y-88339710D01*
X150315364Y-88310774D01*
X149832928Y-87828338D01*
X149832925Y-87828334D01*
X149832925Y-87828335D01*
X149825858Y-87821268D01*
X149825858Y-87821267D01*
X149766772Y-87762181D01*
X149733288Y-87700857D01*
X149738273Y-87631166D01*
X149780144Y-87575232D01*
X149845609Y-87550816D01*
X149854454Y-87550500D01*
X150363601Y-87550500D01*
X150430640Y-87570185D01*
X150451151Y-87586688D01*
X150451476Y-87587012D01*
X150483001Y-87618537D01*
X150507283Y-87642819D01*
X150508067Y-87643420D01*
X150508074Y-87643424D01*
X150508076Y-87643426D01*
X150576150Y-87682579D01*
X150644216Y-87721877D01*
X150644218Y-87721877D01*
X150644219Y-87721878D01*
X150645131Y-87722255D01*
X150645137Y-87722258D01*
X150721192Y-87742503D01*
X150721371Y-87742611D01*
X150721387Y-87742555D01*
X150796943Y-87762800D01*
X150796946Y-87762800D01*
X150796950Y-87762801D01*
X150797807Y-87762913D01*
X150797920Y-87762927D01*
X150797931Y-87762930D01*
X150876859Y-87762800D01*
X150876990Y-87762800D01*
X165185751Y-87762800D01*
X165195321Y-87763170D01*
X165195892Y-87763214D01*
X165202284Y-87763709D01*
X165202544Y-87763677D01*
X165217276Y-87762800D01*
X165250745Y-87762800D01*
X165250911Y-87762810D01*
X165259008Y-87762809D01*
X165259012Y-87762810D01*
X165342230Y-87762800D01*
X165417057Y-87762800D01*
X165417058Y-87762800D01*
X165417121Y-87762791D01*
X165417127Y-87762791D01*
X165483164Y-87745087D01*
X165494172Y-87742137D01*
X165494172Y-87742138D01*
X165494179Y-87742134D01*
X165569784Y-87721877D01*
X165569787Y-87721875D01*
X165569821Y-87721866D01*
X165569836Y-87721859D01*
X165570039Y-87721740D01*
X165636050Y-87683618D01*
X165670354Y-87663812D01*
X165700232Y-87651435D01*
X166915194Y-87325770D01*
X166926859Y-87323240D01*
X167007150Y-87309843D01*
X167119006Y-87271441D01*
X167127132Y-87268961D01*
X167136860Y-87266355D01*
X167168132Y-87256879D01*
X167169570Y-87256392D01*
X167189318Y-87247743D01*
X167198772Y-87244058D01*
X167240779Y-87229638D01*
X167458020Y-87112073D01*
X167464771Y-87106819D01*
X167603980Y-86998468D01*
X167652948Y-86960355D01*
X167820245Y-86778621D01*
X167955348Y-86571831D01*
X168054572Y-86345623D01*
X168115210Y-86106169D01*
X168128799Y-85942169D01*
X168135608Y-85860005D01*
X168135608Y-85859994D01*
X168115210Y-85613834D01*
X168115210Y-85613831D01*
X168054572Y-85374377D01*
X167955348Y-85148169D01*
X167820245Y-84941379D01*
X167652948Y-84759645D01*
X167652943Y-84759641D01*
X167652941Y-84759639D01*
X167458028Y-84607932D01*
X167458022Y-84607928D01*
X167240780Y-84490362D01*
X167240771Y-84490359D01*
X167007153Y-84410157D01*
X166824417Y-84379664D01*
X166763506Y-84369500D01*
X166516494Y-84369500D01*
X166467765Y-84377631D01*
X166272846Y-84410157D01*
X166039228Y-84490359D01*
X166039219Y-84490362D01*
X165821977Y-84607928D01*
X165821971Y-84607932D01*
X165627058Y-84759639D01*
X165627055Y-84759642D01*
X165627052Y-84759644D01*
X165627052Y-84759645D01*
X165597405Y-84791851D01*
X165461230Y-84939777D01*
X165401343Y-84975767D01*
X165331505Y-84973667D01*
X165278770Y-84939777D01*
X165112948Y-84759645D01*
X165112943Y-84759641D01*
X165112941Y-84759639D01*
X164918028Y-84607932D01*
X164918022Y-84607928D01*
X164700780Y-84490362D01*
X164700771Y-84490359D01*
X164467153Y-84410157D01*
X164284417Y-84379664D01*
X164223506Y-84369500D01*
X163976494Y-84369500D01*
X163927765Y-84377631D01*
X163732846Y-84410157D01*
X163499228Y-84490359D01*
X163499219Y-84490362D01*
X163281977Y-84607928D01*
X163281971Y-84607932D01*
X163087058Y-84759639D01*
X163087055Y-84759642D01*
X163087052Y-84759644D01*
X163087052Y-84759645D01*
X163057405Y-84791851D01*
X162921230Y-84939777D01*
X162861343Y-84975767D01*
X162791505Y-84973667D01*
X162738770Y-84939777D01*
X162572948Y-84759645D01*
X162572943Y-84759641D01*
X162572941Y-84759639D01*
X162378028Y-84607932D01*
X162378022Y-84607928D01*
X162160780Y-84490362D01*
X162160771Y-84490359D01*
X161927153Y-84410157D01*
X161744417Y-84379664D01*
X161683506Y-84369500D01*
X161436494Y-84369500D01*
X161387765Y-84377631D01*
X161192846Y-84410157D01*
X160959228Y-84490359D01*
X160959219Y-84490362D01*
X160741977Y-84607928D01*
X160741971Y-84607932D01*
X160547058Y-84759639D01*
X160547055Y-84759642D01*
X160547052Y-84759644D01*
X160547052Y-84759645D01*
X160517405Y-84791851D01*
X160381230Y-84939777D01*
X160321343Y-84975767D01*
X160251505Y-84973667D01*
X160198770Y-84939777D01*
X160032948Y-84759645D01*
X160032943Y-84759641D01*
X160032941Y-84759639D01*
X159838028Y-84607932D01*
X159838022Y-84607928D01*
X159620780Y-84490362D01*
X159620771Y-84490359D01*
X159570879Y-84473231D01*
X159556364Y-84467195D01*
X159556354Y-84467190D01*
X159543341Y-84460782D01*
X158265937Y-84044869D01*
X157980213Y-83951839D01*
X157930920Y-83921610D01*
X153457597Y-79448065D01*
X153457572Y-79448036D01*
X153374356Y-79364820D01*
X153374355Y-79364818D01*
X153338722Y-79329183D01*
X153296780Y-79304968D01*
X153258582Y-79282915D01*
X153232529Y-79267872D01*
X153201793Y-79250125D01*
X153141295Y-79233915D01*
X153141295Y-79233914D01*
X153141291Y-79233914D01*
X153049073Y-79209201D01*
X153049068Y-79209200D01*
X153049060Y-79209200D01*
X153049058Y-79209200D01*
X152996367Y-79209200D01*
X152890958Y-79209198D01*
X152890957Y-79209198D01*
X152882333Y-79209198D01*
X152882305Y-79209200D01*
X149924514Y-79209200D01*
X149857475Y-79189515D01*
X149811720Y-79136711D01*
X149801294Y-79099084D01*
X149793369Y-79028749D01*
X149793368Y-79028745D01*
X149766231Y-78951196D01*
X149761849Y-78935377D01*
X149756797Y-78910942D01*
X149665312Y-78657744D01*
X149661045Y-78588007D01*
X149662160Y-78583514D01*
X149684638Y-78499631D01*
X149692501Y-78470286D01*
X149692501Y-78312171D01*
X149692501Y-78304576D01*
X149692500Y-78304558D01*
X149692500Y-78247059D01*
X149712185Y-78180020D01*
X149764989Y-78134265D01*
X149775528Y-78130023D01*
X149835255Y-78109124D01*
X149850651Y-78104831D01*
X149875687Y-78099566D01*
X150259495Y-77959422D01*
X150302026Y-77951900D01*
X159821675Y-77951900D01*
X159821719Y-77951902D01*
X159829955Y-77951901D01*
X159829960Y-77951903D01*
X159924829Y-77951900D01*
X159988057Y-77951900D01*
X159988067Y-77951900D01*
X159988114Y-77951893D01*
X159988818Y-77951698D01*
X160073364Y-77929042D01*
X160137010Y-77911988D01*
X160141165Y-77911017D01*
X160141661Y-77910757D01*
X160145946Y-77907998D01*
X160198450Y-77877684D01*
X160270071Y-77836333D01*
X160273655Y-77834593D01*
X160274606Y-77833967D01*
X160277711Y-77832048D01*
X160279986Y-77829651D01*
X160318908Y-77790728D01*
X160389520Y-77720116D01*
X160389521Y-77720113D01*
X160395776Y-77713859D01*
X160395806Y-77713824D01*
X165550936Y-72558388D01*
X165600221Y-72528164D01*
X167163343Y-72019216D01*
X167181438Y-72012943D01*
X167182283Y-72012632D01*
X167203327Y-72003086D01*
X167214281Y-71998734D01*
X167240779Y-71989638D01*
X167458020Y-71872073D01*
X167652948Y-71720355D01*
X167820245Y-71538621D01*
X167955348Y-71331831D01*
X168054572Y-71105623D01*
X168115210Y-70866169D01*
X168135608Y-70620000D01*
X168115210Y-70373831D01*
X168054572Y-70134377D01*
X167955348Y-69908169D01*
X167820245Y-69701379D01*
X167652948Y-69519645D01*
X167652943Y-69519641D01*
X167652941Y-69519639D01*
X167458028Y-69367932D01*
X167458022Y-69367928D01*
X167240780Y-69250362D01*
X167240771Y-69250359D01*
X167007153Y-69170157D01*
X166824417Y-69139664D01*
X166763506Y-69129500D01*
X166516494Y-69129500D01*
X166467765Y-69137631D01*
X166272846Y-69170157D01*
X166039228Y-69250359D01*
X166039219Y-69250362D01*
X165821977Y-69367928D01*
X165821971Y-69367932D01*
X165627058Y-69519639D01*
X165627055Y-69519642D01*
X165461230Y-69699777D01*
X165401343Y-69735767D01*
X165331505Y-69733667D01*
X165278770Y-69699777D01*
X165112948Y-69519645D01*
X165112943Y-69519641D01*
X165112941Y-69519639D01*
X164918028Y-69367932D01*
X164918022Y-69367928D01*
X164700780Y-69250362D01*
X164700771Y-69250359D01*
X164467153Y-69170157D01*
X164284417Y-69139664D01*
X164223506Y-69129500D01*
X163976494Y-69129500D01*
X163927765Y-69137631D01*
X163732846Y-69170157D01*
X163499228Y-69250359D01*
X163499219Y-69250362D01*
X163281977Y-69367928D01*
X163281971Y-69367932D01*
X163087058Y-69519639D01*
X163087055Y-69519642D01*
X162921230Y-69699777D01*
X162861343Y-69735767D01*
X162791505Y-69733667D01*
X162738770Y-69699777D01*
X162572948Y-69519645D01*
X162572943Y-69519641D01*
X162572941Y-69519639D01*
X162378028Y-69367932D01*
X162378022Y-69367928D01*
X162160780Y-69250362D01*
X162160771Y-69250359D01*
X161927153Y-69170157D01*
X161744417Y-69139664D01*
X161683506Y-69129500D01*
X161436494Y-69129500D01*
X161387765Y-69137631D01*
X161192846Y-69170157D01*
X160959228Y-69250359D01*
X160959219Y-69250362D01*
X160741977Y-69367928D01*
X160741971Y-69367932D01*
X160547058Y-69519639D01*
X160547055Y-69519642D01*
X160381230Y-69699777D01*
X160321343Y-69735767D01*
X160251505Y-69733667D01*
X160198770Y-69699777D01*
X160032948Y-69519645D01*
X160032943Y-69519641D01*
X160032941Y-69519639D01*
X159838028Y-69367932D01*
X159838022Y-69367928D01*
X159620780Y-69250362D01*
X159620771Y-69250359D01*
X159387153Y-69170157D01*
X159204417Y-69139664D01*
X159143506Y-69129500D01*
X158896494Y-69129500D01*
X158847765Y-69137631D01*
X158652846Y-69170157D01*
X158419228Y-69250359D01*
X158419219Y-69250362D01*
X158201977Y-69367928D01*
X158201971Y-69367932D01*
X158007058Y-69519639D01*
X158007055Y-69519642D01*
X157841230Y-69699777D01*
X157781343Y-69735767D01*
X157711505Y-69733667D01*
X157658770Y-69699777D01*
X157492948Y-69519645D01*
X157492943Y-69519641D01*
X157492941Y-69519639D01*
X157298028Y-69367932D01*
X157298022Y-69367928D01*
X157080780Y-69250362D01*
X157080771Y-69250359D01*
X156847153Y-69170157D01*
X156664417Y-69139664D01*
X156603506Y-69129500D01*
X156356494Y-69129500D01*
X156307765Y-69137631D01*
X156112846Y-69170157D01*
X155879228Y-69250359D01*
X155879219Y-69250362D01*
X155661977Y-69367928D01*
X155661971Y-69367932D01*
X155467058Y-69519639D01*
X155467055Y-69519642D01*
X155301230Y-69699777D01*
X155241343Y-69735767D01*
X155171505Y-69733667D01*
X155118770Y-69699777D01*
X154952948Y-69519645D01*
X154952943Y-69519641D01*
X154952941Y-69519639D01*
X154758028Y-69367932D01*
X154758022Y-69367928D01*
X154540780Y-69250362D01*
X154540771Y-69250359D01*
X154307153Y-69170157D01*
X154124417Y-69139664D01*
X154063506Y-69129500D01*
X153816494Y-69129500D01*
X153767765Y-69137631D01*
X153572846Y-69170157D01*
X153339228Y-69250359D01*
X153339219Y-69250362D01*
X153121977Y-69367928D01*
X153121971Y-69367932D01*
X152927058Y-69519639D01*
X152927055Y-69519642D01*
X152761230Y-69699777D01*
X152701343Y-69735767D01*
X152631505Y-69733667D01*
X152578770Y-69699777D01*
X152412948Y-69519645D01*
X152412943Y-69519641D01*
X152412941Y-69519639D01*
X152218028Y-69367932D01*
X152218022Y-69367928D01*
X152000780Y-69250362D01*
X152000771Y-69250359D01*
X151767153Y-69170157D01*
X151584417Y-69139664D01*
X151523506Y-69129500D01*
X151276494Y-69129500D01*
X151227765Y-69137631D01*
X151032846Y-69170157D01*
X150799228Y-69250359D01*
X150799219Y-69250362D01*
X150581977Y-69367928D01*
X150581971Y-69367932D01*
X150387058Y-69519639D01*
X150387055Y-69519642D01*
X150219752Y-69701382D01*
X150084650Y-69908172D01*
X149985428Y-70134376D01*
X149924789Y-70373834D01*
X149904392Y-70619994D01*
X149904392Y-70620005D01*
X149924789Y-70866165D01*
X149985428Y-71105623D01*
X150051692Y-71256690D01*
X150060595Y-71325990D01*
X150030618Y-71389102D01*
X149971279Y-71425989D01*
X149938136Y-71430500D01*
X149335027Y-71430500D01*
X149292496Y-71422978D01*
X148908687Y-71282834D01*
X148897104Y-71279150D01*
X148868111Y-71269927D01*
X148868104Y-71269926D01*
X148868095Y-71269924D01*
X148866718Y-71269754D01*
X148840992Y-71263735D01*
X148789252Y-71245631D01*
X148610004Y-71225435D01*
X148609996Y-71225435D01*
X148430750Y-71245630D01*
X148430745Y-71245631D01*
X148260476Y-71305211D01*
X148107737Y-71401184D01*
X147980184Y-71528737D01*
X147884211Y-71681476D01*
X147824631Y-71851745D01*
X147824630Y-71851750D01*
X147804435Y-72030996D01*
X147804435Y-72031003D01*
X147824630Y-72210249D01*
X147824631Y-72210254D01*
X147884211Y-72380523D01*
X147953861Y-72491370D01*
X147980184Y-72533262D01*
X148107738Y-72660816D01*
X148260478Y-72756789D01*
X148344187Y-72786080D01*
X148430745Y-72816368D01*
X148430750Y-72816369D01*
X148609996Y-72836565D01*
X148610000Y-72836565D01*
X148610004Y-72836565D01*
X148789249Y-72816369D01*
X148789250Y-72816368D01*
X148789255Y-72816368D01*
X148868251Y-72788725D01*
X148883651Y-72784431D01*
X148908687Y-72779166D01*
X149292495Y-72639022D01*
X149335026Y-72631500D01*
X151577868Y-72631500D01*
X151644907Y-72651185D01*
X151690662Y-72703989D01*
X151700606Y-72773147D01*
X151671581Y-72836703D01*
X151665561Y-72843169D01*
X148513600Y-75995511D01*
X148072732Y-76436432D01*
X148011465Y-76497699D01*
X147972024Y-76566025D01*
X147972020Y-76566032D01*
X147960892Y-76585307D01*
X147932413Y-76634631D01*
X147910885Y-76714994D01*
X147910884Y-76714998D01*
X147891498Y-76787350D01*
X147891495Y-76787372D01*
X147891500Y-76870880D01*
X147891500Y-76875829D01*
X147871815Y-76942868D01*
X147819011Y-76988623D01*
X147749853Y-76998567D01*
X147696377Y-76977404D01*
X147652700Y-76946822D01*
X147652696Y-76946819D01*
X147644223Y-76942868D01*
X147449630Y-76852128D01*
X147449627Y-76852127D01*
X147449625Y-76852126D01*
X147233208Y-76794137D01*
X147233200Y-76794136D01*
X147010002Y-76774609D01*
X147009998Y-76774609D01*
X146786799Y-76794136D01*
X146786791Y-76794137D01*
X146570374Y-76852126D01*
X146570368Y-76852129D01*
X146367306Y-76946818D01*
X146367304Y-76946819D01*
X146183764Y-77075334D01*
X146025334Y-77233764D01*
X145896819Y-77417304D01*
X145896818Y-77417306D01*
X145802129Y-77620368D01*
X145802126Y-77620374D01*
X145744137Y-77836791D01*
X145744136Y-77836799D01*
X145724609Y-78059998D01*
X145724609Y-78060001D01*
X145744136Y-78283200D01*
X145744137Y-78283208D01*
X145802126Y-78499625D01*
X145802127Y-78499627D01*
X145802128Y-78499630D01*
X145875859Y-78657746D01*
X145896819Y-78702696D01*
X145896823Y-78702702D01*
X145908288Y-78719076D01*
X145930616Y-78785282D01*
X145913606Y-78853049D01*
X145862659Y-78900863D01*
X145806714Y-78914200D01*
X141777175Y-78914200D01*
X141776930Y-78914184D01*
X141768946Y-78914185D01*
X141768945Y-78914185D01*
X141687195Y-78914199D01*
X141687160Y-78914200D01*
X141610882Y-78914200D01*
X141532838Y-78935127D01*
X141532818Y-78935132D01*
X141458212Y-78955123D01*
X141458117Y-78955162D01*
X141391302Y-78993754D01*
X141391284Y-78993764D01*
X141321244Y-79034202D01*
X141321231Y-79034212D01*
X141267872Y-79087590D01*
X141267858Y-79087605D01*
X141204010Y-79151453D01*
X141203848Y-79151638D01*
X140977870Y-79377699D01*
X140942483Y-79402460D01*
X140572073Y-79574805D01*
X140559857Y-79581127D01*
X140543835Y-79588036D01*
X140540478Y-79589211D01*
X140387737Y-79685184D01*
X140260184Y-79812737D01*
X140164211Y-79965476D01*
X140104631Y-80135745D01*
X140104630Y-80135750D01*
X140084435Y-80314996D01*
X140084435Y-80315003D01*
X140104630Y-80494249D01*
X140104631Y-80494254D01*
X140164211Y-80664523D01*
X140260184Y-80817262D01*
X140387738Y-80944816D01*
X140462800Y-80991980D01*
X140540027Y-81040506D01*
X140586318Y-81092841D01*
X140596966Y-81161895D01*
X140568591Y-81225743D01*
X140510201Y-81264115D01*
X140474055Y-81269500D01*
X129319097Y-81269500D01*
X129252058Y-81249815D01*
X129231416Y-81233181D01*
X123500901Y-75502666D01*
X123485989Y-75484632D01*
X123484423Y-75482326D01*
X123484420Y-75482320D01*
X123266643Y-75206230D01*
X122916998Y-74762963D01*
X122890936Y-74698137D01*
X122890533Y-74692774D01*
X122890499Y-74692152D01*
X122890499Y-74692128D01*
X122884091Y-74632517D01*
X122833796Y-74497669D01*
X122833795Y-74497668D01*
X122833793Y-74497664D01*
X122747547Y-74382455D01*
X122747544Y-74382452D01*
X122632335Y-74296206D01*
X122632328Y-74296202D01*
X122497482Y-74245908D01*
X122497483Y-74245908D01*
X122437883Y-74239501D01*
X122437881Y-74239500D01*
X122437873Y-74239500D01*
X122437864Y-74239500D01*
X120782129Y-74239500D01*
X120782123Y-74239501D01*
X120722516Y-74245908D01*
X120587671Y-74296202D01*
X120587664Y-74296206D01*
X120472455Y-74382452D01*
X120472452Y-74382455D01*
X120386206Y-74497664D01*
X120386202Y-74497671D01*
X120335908Y-74632517D01*
X120329501Y-74692116D01*
X120329500Y-74692135D01*
X120329500Y-76347870D01*
X120329501Y-76347876D01*
X120335908Y-76407483D01*
X120386202Y-76542328D01*
X120386206Y-76542335D01*
X120472452Y-76657544D01*
X120472455Y-76657547D01*
X120587664Y-76743793D01*
X120587671Y-76743797D01*
X120632618Y-76760561D01*
X120722517Y-76794091D01*
X120782127Y-76800500D01*
X120782964Y-76800499D01*
X120783149Y-76800554D01*
X120785453Y-76800678D01*
X120785423Y-76801221D01*
X120850006Y-76820168D01*
X120895773Y-76872961D01*
X120905733Y-76942117D01*
X120876723Y-77005679D01*
X120854115Y-77026073D01*
X120783766Y-77075332D01*
X120625334Y-77233764D01*
X120496819Y-77417304D01*
X120496818Y-77417306D01*
X120402129Y-77620368D01*
X120402126Y-77620374D01*
X120344137Y-77836791D01*
X120344136Y-77836799D01*
X120324609Y-78059998D01*
X119500500Y-78059998D01*
X119500500Y-64773713D01*
X120649500Y-64773713D01*
X120649500Y-64986286D01*
X120682753Y-65196239D01*
X120748444Y-65398414D01*
X120844951Y-65587820D01*
X120969890Y-65759786D01*
X121120213Y-65910109D01*
X121292179Y-66035048D01*
X121292181Y-66035049D01*
X121292184Y-66035051D01*
X121481588Y-66131557D01*
X121683757Y-66197246D01*
X121893713Y-66230500D01*
X121893714Y-66230500D01*
X122106286Y-66230500D01*
X122106287Y-66230500D01*
X122316243Y-66197246D01*
X122518412Y-66131557D01*
X122707816Y-66035051D01*
X122729789Y-66019086D01*
X122879786Y-65910109D01*
X122879788Y-65910106D01*
X122879792Y-65910104D01*
X123030104Y-65759792D01*
X123030106Y-65759788D01*
X123030109Y-65759786D01*
X123155048Y-65587820D01*
X123155047Y-65587820D01*
X123155051Y-65587816D01*
X123251557Y-65398412D01*
X123317246Y-65196243D01*
X123350500Y-64986287D01*
X123350500Y-64773713D01*
X167449500Y-64773713D01*
X167449500Y-64986286D01*
X167482753Y-65196239D01*
X167548444Y-65398414D01*
X167644951Y-65587820D01*
X167769890Y-65759786D01*
X167920213Y-65910109D01*
X168092179Y-66035048D01*
X168092181Y-66035049D01*
X168092184Y-66035051D01*
X168281588Y-66131557D01*
X168483757Y-66197246D01*
X168693713Y-66230500D01*
X168693714Y-66230500D01*
X168906286Y-66230500D01*
X168906287Y-66230500D01*
X169116243Y-66197246D01*
X169318412Y-66131557D01*
X169507816Y-66035051D01*
X169529789Y-66019086D01*
X169679786Y-65910109D01*
X169679788Y-65910106D01*
X169679792Y-65910104D01*
X169830104Y-65759792D01*
X169830106Y-65759788D01*
X169830109Y-65759786D01*
X169955048Y-65587820D01*
X169955047Y-65587820D01*
X169955051Y-65587816D01*
X170051557Y-65398412D01*
X170117246Y-65196243D01*
X170150500Y-64986287D01*
X170150500Y-64773713D01*
X170117246Y-64563757D01*
X170051557Y-64361588D01*
X169955051Y-64172184D01*
X169955049Y-64172181D01*
X169955048Y-64172179D01*
X169830109Y-64000213D01*
X169679786Y-63849890D01*
X169507820Y-63724951D01*
X169318414Y-63628444D01*
X169318413Y-63628443D01*
X169318412Y-63628443D01*
X169116243Y-63562754D01*
X169116241Y-63562753D01*
X169116240Y-63562753D01*
X168954957Y-63537208D01*
X168906287Y-63529500D01*
X168693713Y-63529500D01*
X168645042Y-63537208D01*
X168483760Y-63562753D01*
X168281585Y-63628444D01*
X168092179Y-63724951D01*
X167920213Y-63849890D01*
X167769890Y-64000213D01*
X167644951Y-64172179D01*
X167548444Y-64361585D01*
X167482753Y-64563760D01*
X167449500Y-64773713D01*
X123350500Y-64773713D01*
X123317246Y-64563757D01*
X123251557Y-64361588D01*
X123155051Y-64172184D01*
X123155049Y-64172181D01*
X123155048Y-64172179D01*
X123030109Y-64000213D01*
X122879786Y-63849890D01*
X122707820Y-63724951D01*
X122518414Y-63628444D01*
X122518413Y-63628443D01*
X122518412Y-63628443D01*
X122316243Y-63562754D01*
X122316241Y-63562753D01*
X122316240Y-63562753D01*
X122154957Y-63537208D01*
X122106287Y-63529500D01*
X121893713Y-63529500D01*
X121845042Y-63537208D01*
X121683760Y-63562753D01*
X121481585Y-63628444D01*
X121292179Y-63724951D01*
X121120213Y-63849890D01*
X120969890Y-64000213D01*
X120844951Y-64172179D01*
X120748444Y-64361585D01*
X120682753Y-64563760D01*
X120649500Y-64773713D01*
X119500500Y-64773713D01*
X119500500Y-62504500D01*
X119520185Y-62437461D01*
X119572989Y-62391706D01*
X119624500Y-62380500D01*
X119665892Y-62380500D01*
X171163494Y-62380500D01*
X171187680Y-62382882D01*
G37*
%TD.AperFunction*%
%TD*%
%TA.AperFunction,Conductor*%
%TO.N,+6V*%
G36*
X167575470Y-92684035D02*
G01*
X167579921Y-92691805D01*
X167580016Y-92693278D01*
X167580997Y-93477658D01*
X167580101Y-93482163D01*
X167278397Y-94208167D01*
X167272058Y-94214492D01*
X167263103Y-94214481D01*
X167262972Y-94214426D01*
X166026861Y-93683043D01*
X166020614Y-93676627D01*
X166019782Y-93672294D01*
X166019782Y-92890295D01*
X166023209Y-92882022D01*
X166029991Y-92878691D01*
X167566829Y-92681688D01*
X167575470Y-92684035D01*
G37*
%TD.AperFunction*%
%TD*%
%TA.AperFunction,Conductor*%
%TO.N,+6V*%
G36*
X154791267Y-89277711D02*
G01*
X154798400Y-89283123D01*
X154800000Y-89289028D01*
X154800000Y-90070971D01*
X154796573Y-90079244D01*
X154791266Y-90082289D01*
X153516005Y-90416520D01*
X153507134Y-90415302D01*
X153502236Y-90409693D01*
X153200864Y-89684487D01*
X153200854Y-89675538D01*
X153502236Y-88950305D01*
X153508574Y-88943982D01*
X153516002Y-88943479D01*
X154791267Y-89277711D01*
G37*
%TD.AperFunction*%
%TD*%
%TA.AperFunction,Conductor*%
%TO.N,Net-(U1-IO5)*%
G36*
X160657033Y-70245965D02*
G01*
X161556215Y-70617437D01*
X161562553Y-70623764D01*
X161562562Y-70623784D01*
X161934032Y-71522961D01*
X161934023Y-71531915D01*
X161927685Y-71538242D01*
X161926840Y-71538553D01*
X160237527Y-72088609D01*
X160228600Y-72087912D01*
X160225632Y-72085757D01*
X160094351Y-71954487D01*
X160090924Y-71946214D01*
X160091498Y-71942598D01*
X160641447Y-70253159D01*
X160647266Y-70246354D01*
X160656194Y-70245657D01*
X160657033Y-70245965D01*
G37*
%TD.AperFunction*%
%TD*%
%TA.AperFunction,Conductor*%
%TO.N,Net-(U1-IO5)*%
G36*
X149110060Y-78611825D02*
G01*
X149112791Y-78616122D01*
X149281378Y-79082717D01*
X149280966Y-79091663D01*
X149274885Y-79097489D01*
X149012511Y-79207115D01*
X149003556Y-79207142D01*
X149003489Y-79207115D01*
X148895289Y-79161907D01*
X148741188Y-79097520D01*
X148734877Y-79091169D01*
X148734725Y-79082671D01*
X148907175Y-78616041D01*
X148913258Y-78609470D01*
X148918150Y-78608398D01*
X149101787Y-78608398D01*
X149110060Y-78611825D01*
G37*
%TD.AperFunction*%
%TD*%
%TA.AperFunction,Conductor*%
%TO.N,+5V*%
G36*
X158938960Y-101879979D02*
G01*
X158947225Y-101883421D01*
X158950619Y-101891022D01*
X159004305Y-102845914D01*
X159001348Y-102854367D01*
X158993280Y-102858253D01*
X158992623Y-102858271D01*
X158460835Y-102858271D01*
X158452562Y-102854844D01*
X158451489Y-102853610D01*
X158445692Y-102845914D01*
X158017199Y-102277019D01*
X158014960Y-102268350D01*
X158018260Y-102261721D01*
X158396565Y-101882443D01*
X158404829Y-101879008D01*
X158938960Y-101879979D01*
G37*
%TD.AperFunction*%
%TD*%
%TA.AperFunction,Conductor*%
%TO.N,GND*%
G36*
X163201000Y-94880000D02*
G01*
X163506147Y-95619104D01*
X162014214Y-96280000D01*
X162014214Y-95480000D01*
X162460896Y-94573853D01*
X163201000Y-94880000D01*
G37*
%TD.AperFunction*%
%TD*%
%TA.AperFunction,Conductor*%
%TO.N,GND*%
G36*
X164800000Y-94480000D02*
G01*
X164800000Y-95280000D01*
X163506147Y-95619104D01*
X163199000Y-94880000D01*
X163506147Y-94140896D01*
X164800000Y-94480000D01*
G37*
%TD.AperFunction*%
%TD*%
%TA.AperFunction,Conductor*%
%TO.N,GND*%
G36*
X167401000Y-110280000D02*
G01*
X167495671Y-110510970D01*
X167024263Y-110705000D01*
X167024263Y-110455000D01*
X167169030Y-110184329D01*
X167401000Y-110280000D01*
G37*
%TD.AperFunction*%
%TD*%
%TA.AperFunction,Conductor*%
%TO.N,Net-(M1-SDA)*%
G36*
X147319079Y-87504386D02*
G01*
X147319560Y-87504599D01*
X148563295Y-88091834D01*
X148569313Y-88098465D01*
X148570000Y-88102414D01*
X148570000Y-88337585D01*
X148566573Y-88345858D01*
X148563295Y-88348165D01*
X147319584Y-88935389D01*
X147310640Y-88935822D01*
X147304009Y-88929804D01*
X147303785Y-88929299D01*
X147062265Y-88348165D01*
X147010865Y-88224489D01*
X147010855Y-88215536D01*
X147303786Y-87510698D01*
X147310124Y-87504375D01*
X147319079Y-87504386D01*
G37*
%TD.AperFunction*%
%TD*%
%TA.AperFunction,Conductor*%
%TO.N,Net-(M1-SDA)*%
G36*
X150503410Y-88852793D02*
G01*
X150508200Y-88858336D01*
X150598831Y-89076199D01*
X150598844Y-89085154D01*
X150598821Y-89085210D01*
X150509007Y-89299793D01*
X150502651Y-89306102D01*
X150493697Y-89306069D01*
X150493322Y-89305904D01*
X150056160Y-89104699D01*
X150050078Y-89098127D01*
X150050424Y-89089179D01*
X150052776Y-89085801D01*
X150215390Y-88923187D01*
X150220812Y-88920114D01*
X150494552Y-88851481D01*
X150503410Y-88852793D01*
G37*
%TD.AperFunction*%
%TD*%
%TA.AperFunction,Conductor*%
%TO.N,+5V*%
G36*
X122511560Y-119939363D02*
G01*
X122888773Y-120316576D01*
X122892200Y-120324849D01*
X122891114Y-120329771D01*
X122335342Y-121528322D01*
X122328753Y-121534386D01*
X122320263Y-121534215D01*
X122305988Y-121528322D01*
X122076161Y-121433443D01*
X121613787Y-121242562D01*
X121607448Y-121236237D01*
X121607437Y-121236212D01*
X121315692Y-120529511D01*
X121315703Y-120520556D01*
X121321351Y-120514543D01*
X122498133Y-119937131D01*
X122507070Y-119936564D01*
X122511560Y-119939363D01*
G37*
%TD.AperFunction*%
%TD*%
%TA.AperFunction,Conductor*%
%TO.N,+5V*%
G36*
X122511359Y-119939562D02*
G01*
X122888573Y-120316776D01*
X122892000Y-120325049D01*
X122890915Y-120329970D01*
X122335342Y-121528320D01*
X122328753Y-121534385D01*
X122320262Y-121534214D01*
X121613787Y-121242562D01*
X121607448Y-121236237D01*
X121607437Y-121236212D01*
X121315692Y-120529512D01*
X121315703Y-120520557D01*
X121321354Y-120514543D01*
X122497934Y-119937330D01*
X122506870Y-119936764D01*
X122511359Y-119939562D01*
G37*
%TD.AperFunction*%
%TD*%
%TA.AperFunction,Conductor*%
%TO.N,+3.3V*%
G36*
X122397201Y-74920209D02*
G01*
X122869753Y-75519293D01*
X123087530Y-75795383D01*
X123089963Y-75804001D01*
X123086617Y-75810902D01*
X122953471Y-75944048D01*
X122951442Y-75945669D01*
X122397906Y-76295010D01*
X122389081Y-76296528D01*
X122383389Y-76293389D01*
X121618657Y-75528657D01*
X121615230Y-75520384D01*
X121618657Y-75512111D01*
X121619740Y-75511154D01*
X122380828Y-74918225D01*
X122389458Y-74915845D01*
X122397201Y-74920209D01*
G37*
%TD.AperFunction*%
%TD*%
%TA.AperFunction,Conductor*%
%TO.N,Net-(U4-B01)*%
G36*
X144070779Y-86149467D02*
G01*
X144076877Y-86155329D01*
X144286523Y-86606132D01*
X144286904Y-86615079D01*
X144284187Y-86619339D01*
X144154339Y-86749187D01*
X144146066Y-86752614D01*
X144141132Y-86751523D01*
X143847736Y-86615079D01*
X143690328Y-86541876D01*
X143684273Y-86535281D01*
X143684439Y-86526825D01*
X143792436Y-86263814D01*
X143798746Y-86257464D01*
X144061825Y-86149440D01*
X144070779Y-86149467D01*
G37*
%TD.AperFunction*%
%TD*%
%TA.AperFunction,Conductor*%
%TO.N,Net-(U4-A02)*%
G36*
X156871881Y-71821690D02*
G01*
X156876830Y-71829153D01*
X156877047Y-71831356D01*
X156877992Y-72114832D01*
X156877088Y-72119382D01*
X156767265Y-72382228D01*
X156760913Y-72388540D01*
X156751958Y-72388513D01*
X156750732Y-72387914D01*
X156300109Y-72134355D01*
X156294579Y-72127311D01*
X156294146Y-72124158D01*
X156294146Y-71940636D01*
X156297573Y-71932363D01*
X156303602Y-71929153D01*
X156863107Y-71819912D01*
X156871881Y-71821690D01*
G37*
%TD.AperFunction*%
%TD*%
%TA.AperFunction,Conductor*%
%TO.N,Net-(U4-A02)*%
G36*
X149202313Y-71928193D02*
G01*
X149208909Y-71934249D01*
X149210000Y-71939183D01*
X149210000Y-72122816D01*
X149206573Y-72131089D01*
X149202313Y-72133806D01*
X148735305Y-72304330D01*
X148726358Y-72303949D01*
X148720496Y-72297851D01*
X148610883Y-72035509D01*
X148610857Y-72026556D01*
X148610862Y-72026542D01*
X148720496Y-71764147D01*
X148726848Y-71757836D01*
X148735302Y-71757669D01*
X149202313Y-71928193D01*
G37*
%TD.AperFunction*%
%TD*%
%TA.AperFunction,Conductor*%
%TO.N,Net-(M1-SCL)*%
G36*
X146491313Y-104456193D02*
G01*
X146497909Y-104462249D01*
X146499000Y-104467183D01*
X146499000Y-104650816D01*
X146495573Y-104659089D01*
X146491313Y-104661806D01*
X146024305Y-104832330D01*
X146015358Y-104831949D01*
X146009496Y-104825851D01*
X145899883Y-104563509D01*
X145899857Y-104554556D01*
X145899862Y-104554542D01*
X146009496Y-104292147D01*
X146015848Y-104285836D01*
X146024302Y-104285669D01*
X146491313Y-104456193D01*
G37*
%TD.AperFunction*%
%TD*%
%TA.AperFunction,Conductor*%
%TO.N,Net-(U4-A01)*%
G36*
X141249239Y-79825752D02*
G01*
X141379112Y-79955576D01*
X141382540Y-79963849D01*
X141381450Y-79968783D01*
X141171876Y-80419667D01*
X141165281Y-80425724D01*
X141156822Y-80425558D01*
X140893816Y-80317563D01*
X140887464Y-80311251D01*
X140887437Y-80311184D01*
X140856372Y-80235530D01*
X140779439Y-80048171D01*
X140779466Y-80039218D01*
X140785323Y-80033123D01*
X141236032Y-79823418D01*
X141244978Y-79823036D01*
X141249239Y-79825752D01*
G37*
%TD.AperFunction*%
%TD*%
%TA.AperFunction,Conductor*%
%TO.N,+3.3V*%
G36*
X152617460Y-84391439D02*
G01*
X153430477Y-84656131D01*
X154306839Y-84941446D01*
X154313645Y-84947265D01*
X154314342Y-84956193D01*
X154314031Y-84957038D01*
X153942562Y-85856215D01*
X153936235Y-85862553D01*
X153936215Y-85862562D01*
X153037038Y-86234031D01*
X153028084Y-86234022D01*
X153021757Y-86227684D01*
X153021446Y-86226839D01*
X152471439Y-84537460D01*
X152472136Y-84528532D01*
X152474288Y-84525568D01*
X152605566Y-84394290D01*
X152613838Y-84390864D01*
X152617460Y-84391439D01*
G37*
%TD.AperFunction*%
%TD*%
%TA.AperFunction,Conductor*%
%TO.N,Net-(U4-A01)*%
G36*
X157697501Y-84391410D02*
G01*
X158109436Y-84525533D01*
X159386840Y-84941446D01*
X159393646Y-84947266D01*
X159394343Y-84956193D01*
X159394032Y-84957038D01*
X159022562Y-85856215D01*
X159016235Y-85862553D01*
X159016215Y-85862562D01*
X158117038Y-86234031D01*
X158108084Y-86234022D01*
X158101757Y-86227684D01*
X158101451Y-86226854D01*
X157551475Y-84537425D01*
X157552172Y-84528500D01*
X157554323Y-84525537D01*
X157685607Y-84394261D01*
X157693879Y-84390835D01*
X157697501Y-84391410D01*
G37*
%TD.AperFunction*%
%TD*%
%TA.AperFunction,Conductor*%
%TO.N,Net-(U4-B01)*%
G36*
X165736950Y-85485939D02*
G01*
X166636512Y-85858143D01*
X166642847Y-85864472D01*
X166642853Y-85864487D01*
X167013768Y-86762323D01*
X167013759Y-86771277D01*
X167007421Y-86777604D01*
X167005983Y-86778091D01*
X165214269Y-87258351D01*
X165205391Y-87257183D01*
X165199939Y-87250079D01*
X165199540Y-87247050D01*
X165199540Y-87064193D01*
X165200138Y-87060501D01*
X165721394Y-85493064D01*
X165727256Y-85486296D01*
X165736188Y-85485655D01*
X165736950Y-85485939D01*
G37*
%TD.AperFunction*%
%TD*%
%TA.AperFunction,Conductor*%
%TO.N,Net-(U1-IO17)*%
G36*
X147319003Y-100204570D02*
G01*
X147319659Y-100204867D01*
X148563466Y-100816785D01*
X148569376Y-100823511D01*
X148570000Y-100827282D01*
X148570000Y-101012717D01*
X148566573Y-101020990D01*
X148563465Y-101023215D01*
X147319678Y-101635123D01*
X147310742Y-101635701D01*
X147304015Y-101629790D01*
X147303709Y-101629115D01*
X147010866Y-100924490D01*
X147010855Y-100915536D01*
X147303709Y-100210883D01*
X147310048Y-100204559D01*
X147319003Y-100204570D01*
G37*
%TD.AperFunction*%
%TD*%
%TA.AperFunction,Conductor*%
%TO.N,Net-(U1-IO16)*%
G36*
X165737038Y-70245968D02*
G01*
X165754447Y-70253160D01*
X166636215Y-70617437D01*
X166642553Y-70623764D01*
X166642562Y-70623784D01*
X167014032Y-71522961D01*
X167014023Y-71531915D01*
X167007685Y-71538242D01*
X167006840Y-71538553D01*
X165317508Y-72088596D01*
X165308581Y-72087899D01*
X165305613Y-72085744D01*
X165174334Y-71954472D01*
X165170907Y-71946199D01*
X165171480Y-71942583D01*
X165721447Y-70253158D01*
X165727265Y-70246354D01*
X165736193Y-70245657D01*
X165737038Y-70245968D01*
G37*
%TD.AperFunction*%
%TD*%
%TA.AperFunction,Conductor*%
%TO.N,Net-(U1-IO18)*%
G36*
X148592090Y-77546127D02*
G01*
X148594807Y-77550387D01*
X148629790Y-77646194D01*
X148630500Y-77650207D01*
X148630500Y-77772735D01*
X148650977Y-77849158D01*
X148650979Y-77849161D01*
X148654124Y-77854608D01*
X148654124Y-77854609D01*
X148690537Y-77917678D01*
X148690541Y-77917683D01*
X148749165Y-77976307D01*
X148751882Y-77980567D01*
X148765329Y-78017395D01*
X148764948Y-78026342D01*
X148758850Y-78032204D01*
X148496511Y-78141815D01*
X148487556Y-78141842D01*
X148487489Y-78141815D01*
X148225148Y-78032203D01*
X148218836Y-78025851D01*
X148218669Y-78017397D01*
X148389193Y-77550386D01*
X148395249Y-77543791D01*
X148400183Y-77542700D01*
X148583817Y-77542700D01*
X148592090Y-77546127D01*
G37*
%TD.AperFunction*%
%TD*%
%TA.AperFunction,Conductor*%
%TO.N,Net-(U1-IO16)*%
G36*
X150169313Y-77248593D02*
G01*
X150175909Y-77254649D01*
X150177000Y-77259583D01*
X150177000Y-77443216D01*
X150173573Y-77451489D01*
X150169313Y-77454206D01*
X149702305Y-77624730D01*
X149693358Y-77624349D01*
X149687496Y-77618251D01*
X149577883Y-77355909D01*
X149577857Y-77346956D01*
X149577862Y-77346942D01*
X149687496Y-77084547D01*
X149693848Y-77078236D01*
X149702302Y-77078069D01*
X150169313Y-77248593D01*
G37*
%TD.AperFunction*%
%TD*%
%TA.AperFunction,Conductor*%
%TO.N,Net-(U1-IO18)*%
G36*
X158117976Y-70246355D02*
G01*
X159016215Y-70617437D01*
X159022553Y-70623764D01*
X159022562Y-70623784D01*
X159394349Y-71523729D01*
X159394340Y-71532683D01*
X159388002Y-71539010D01*
X159387904Y-71539050D01*
X157820662Y-72169976D01*
X157811708Y-72169886D01*
X157808020Y-72167395D01*
X157676715Y-72036082D01*
X157673288Y-72027809D01*
X157673615Y-72025061D01*
X158102146Y-70254418D01*
X158107422Y-70247185D01*
X158116269Y-70245800D01*
X158117976Y-70246355D01*
G37*
%TD.AperFunction*%
%TD*%
%TA.AperFunction,Conductor*%
%TO.N,Net-(U1-IO17)*%
G36*
X170678174Y-99516939D02*
G01*
X170841804Y-99584129D01*
X170941184Y-99624936D01*
X170947536Y-99631248D01*
X170947563Y-99631315D01*
X171055559Y-99894324D01*
X171055532Y-99903279D01*
X171049670Y-99909377D01*
X170598867Y-100119023D01*
X170589920Y-100119404D01*
X170585660Y-100116687D01*
X170455812Y-99986839D01*
X170452385Y-99978566D01*
X170453474Y-99973636D01*
X170663124Y-99522827D01*
X170669718Y-99516773D01*
X170678174Y-99516939D01*
G37*
%TD.AperFunction*%
%TD*%
%TA.AperFunction,Conductor*%
%TO.N,Net-(M1-SCL)*%
G36*
X156248755Y-108079407D02*
G01*
X157650861Y-108154030D01*
X157658939Y-108157891D01*
X157661921Y-108166335D01*
X157661530Y-108168775D01*
X157461979Y-108904813D01*
X157456507Y-108911901D01*
X157456481Y-108911915D01*
X156716404Y-109333800D01*
X156707520Y-109334921D01*
X156700446Y-109329430D01*
X156700313Y-109329192D01*
X156106268Y-108228220D01*
X156105356Y-108219312D01*
X156108290Y-108214393D01*
X156239866Y-108082817D01*
X156248138Y-108079391D01*
X156248755Y-108079407D01*
G37*
%TD.AperFunction*%
%TD*%
%TA.AperFunction,Conductor*%
%TO.N,+5V*%
G36*
X122174099Y-120308933D02*
G01*
X122414180Y-120407436D01*
X122420533Y-120413746D01*
X122420563Y-120413819D01*
X122519066Y-120653900D01*
X122519036Y-120662855D01*
X122513351Y-120668866D01*
X122107295Y-120865981D01*
X122098356Y-120866511D01*
X122093913Y-120863729D01*
X121964270Y-120734086D01*
X121960843Y-120725813D01*
X121962018Y-120720704D01*
X122159134Y-120314646D01*
X122165828Y-120308702D01*
X122174099Y-120308933D01*
G37*
%TD.AperFunction*%
%TD*%
%TA.AperFunction,Conductor*%
%TO.N,+5V*%
G36*
X122355181Y-120347581D02*
G01*
X122471177Y-120463577D01*
X122474604Y-120471850D01*
X122471177Y-120480123D01*
X122464133Y-120483485D01*
X122197502Y-120511640D01*
X122188914Y-120509101D01*
X122184638Y-120501234D01*
X122187177Y-120492646D01*
X122188179Y-120491557D01*
X122338822Y-120347399D01*
X122347165Y-120344157D01*
X122355181Y-120347581D01*
G37*
%TD.AperFunction*%
%TD*%
M02*
