%TF.GenerationSoftware,KiCad,Pcbnew,8.0.5*%
%TF.CreationDate,2025-01-07T17:42:01+01:00*%
%TF.ProjectId,pendulo_invertido_Juan,70656e64-756c-46f5-9f69-6e7665727469,2*%
%TF.SameCoordinates,Original*%
%TF.FileFunction,Legend,Top*%
%TF.FilePolarity,Positive*%
%FSLAX46Y46*%
G04 Gerber Fmt 4.6, Leading zero omitted, Abs format (unit mm)*
G04 Created by KiCad (PCBNEW 8.0.5) date 2025-01-07 17:42:01*
%MOMM*%
%LPD*%
G01*
G04 APERTURE LIST*
%ADD10C,0.150000*%
%ADD11C,0.120000*%
%ADD12C,0.152400*%
%ADD13C,0.200000*%
%ADD14C,0.127000*%
G04 APERTURE END LIST*
D10*
X149422493Y-100349819D02*
X149422493Y-101064104D01*
X149422493Y-101064104D02*
X149374874Y-101206961D01*
X149374874Y-101206961D02*
X149279636Y-101302200D01*
X149279636Y-101302200D02*
X149136779Y-101349819D01*
X149136779Y-101349819D02*
X149041541Y-101349819D01*
X150327255Y-100683152D02*
X150327255Y-101349819D01*
X149898684Y-100683152D02*
X149898684Y-101206961D01*
X149898684Y-101206961D02*
X149946303Y-101302200D01*
X149946303Y-101302200D02*
X150041541Y-101349819D01*
X150041541Y-101349819D02*
X150184398Y-101349819D01*
X150184398Y-101349819D02*
X150279636Y-101302200D01*
X150279636Y-101302200D02*
X150327255Y-101254580D01*
X151232017Y-101349819D02*
X151232017Y-100826009D01*
X151232017Y-100826009D02*
X151184398Y-100730771D01*
X151184398Y-100730771D02*
X151089160Y-100683152D01*
X151089160Y-100683152D02*
X150898684Y-100683152D01*
X150898684Y-100683152D02*
X150803446Y-100730771D01*
X151232017Y-101302200D02*
X151136779Y-101349819D01*
X151136779Y-101349819D02*
X150898684Y-101349819D01*
X150898684Y-101349819D02*
X150803446Y-101302200D01*
X150803446Y-101302200D02*
X150755827Y-101206961D01*
X150755827Y-101206961D02*
X150755827Y-101111723D01*
X150755827Y-101111723D02*
X150803446Y-101016485D01*
X150803446Y-101016485D02*
X150898684Y-100968866D01*
X150898684Y-100968866D02*
X151136779Y-100968866D01*
X151136779Y-100968866D02*
X151232017Y-100921247D01*
X151708208Y-100683152D02*
X151708208Y-101349819D01*
X151708208Y-100778390D02*
X151755827Y-100730771D01*
X151755827Y-100730771D02*
X151851065Y-100683152D01*
X151851065Y-100683152D02*
X151993922Y-100683152D01*
X151993922Y-100683152D02*
X152089160Y-100730771D01*
X152089160Y-100730771D02*
X152136779Y-100826009D01*
X152136779Y-100826009D02*
X152136779Y-101349819D01*
X153660589Y-100349819D02*
X153660589Y-101064104D01*
X153660589Y-101064104D02*
X153612970Y-101206961D01*
X153612970Y-101206961D02*
X153517732Y-101302200D01*
X153517732Y-101302200D02*
X153374875Y-101349819D01*
X153374875Y-101349819D02*
X153279637Y-101349819D01*
X154279637Y-101349819D02*
X154184399Y-101302200D01*
X154184399Y-101302200D02*
X154136780Y-101254580D01*
X154136780Y-101254580D02*
X154089161Y-101159342D01*
X154089161Y-101159342D02*
X154089161Y-100873628D01*
X154089161Y-100873628D02*
X154136780Y-100778390D01*
X154136780Y-100778390D02*
X154184399Y-100730771D01*
X154184399Y-100730771D02*
X154279637Y-100683152D01*
X154279637Y-100683152D02*
X154422494Y-100683152D01*
X154422494Y-100683152D02*
X154517732Y-100730771D01*
X154517732Y-100730771D02*
X154565351Y-100778390D01*
X154565351Y-100778390D02*
X154612970Y-100873628D01*
X154612970Y-100873628D02*
X154612970Y-101159342D01*
X154612970Y-101159342D02*
X154565351Y-101254580D01*
X154565351Y-101254580D02*
X154517732Y-101302200D01*
X154517732Y-101302200D02*
X154422494Y-101349819D01*
X154422494Y-101349819D02*
X154279637Y-101349819D01*
X154993923Y-101302200D02*
X155089161Y-101349819D01*
X155089161Y-101349819D02*
X155279637Y-101349819D01*
X155279637Y-101349819D02*
X155374875Y-101302200D01*
X155374875Y-101302200D02*
X155422494Y-101206961D01*
X155422494Y-101206961D02*
X155422494Y-101159342D01*
X155422494Y-101159342D02*
X155374875Y-101064104D01*
X155374875Y-101064104D02*
X155279637Y-101016485D01*
X155279637Y-101016485D02*
X155136780Y-101016485D01*
X155136780Y-101016485D02*
X155041542Y-100968866D01*
X155041542Y-100968866D02*
X154993923Y-100873628D01*
X154993923Y-100873628D02*
X154993923Y-100826009D01*
X154993923Y-100826009D02*
X155041542Y-100730771D01*
X155041542Y-100730771D02*
X155136780Y-100683152D01*
X155136780Y-100683152D02*
X155279637Y-100683152D01*
X155279637Y-100683152D02*
X155374875Y-100730771D01*
X156232018Y-101302200D02*
X156136780Y-101349819D01*
X156136780Y-101349819D02*
X155946304Y-101349819D01*
X155946304Y-101349819D02*
X155851066Y-101302200D01*
X155851066Y-101302200D02*
X155803447Y-101206961D01*
X155803447Y-101206961D02*
X155803447Y-100826009D01*
X155803447Y-100826009D02*
X155851066Y-100730771D01*
X155851066Y-100730771D02*
X155946304Y-100683152D01*
X155946304Y-100683152D02*
X156136780Y-100683152D01*
X156136780Y-100683152D02*
X156232018Y-100730771D01*
X156232018Y-100730771D02*
X156279637Y-100826009D01*
X156279637Y-100826009D02*
X156279637Y-100921247D01*
X156279637Y-100921247D02*
X155803447Y-101016485D01*
X156136780Y-100302200D02*
X155993923Y-100445057D01*
X157470114Y-101349819D02*
X157470114Y-100349819D01*
X157470114Y-100349819D02*
X157851066Y-100349819D01*
X157851066Y-100349819D02*
X157946304Y-100397438D01*
X157946304Y-100397438D02*
X157993923Y-100445057D01*
X157993923Y-100445057D02*
X158041542Y-100540295D01*
X158041542Y-100540295D02*
X158041542Y-100683152D01*
X158041542Y-100683152D02*
X157993923Y-100778390D01*
X157993923Y-100778390D02*
X157946304Y-100826009D01*
X157946304Y-100826009D02*
X157851066Y-100873628D01*
X157851066Y-100873628D02*
X157470114Y-100873628D01*
X158470114Y-101349819D02*
X158470114Y-100683152D01*
X158470114Y-100873628D02*
X158517733Y-100778390D01*
X158517733Y-100778390D02*
X158565352Y-100730771D01*
X158565352Y-100730771D02*
X158660590Y-100683152D01*
X158660590Y-100683152D02*
X158755828Y-100683152D01*
X159517733Y-101349819D02*
X159517733Y-100826009D01*
X159517733Y-100826009D02*
X159470114Y-100730771D01*
X159470114Y-100730771D02*
X159374876Y-100683152D01*
X159374876Y-100683152D02*
X159184400Y-100683152D01*
X159184400Y-100683152D02*
X159089162Y-100730771D01*
X159517733Y-101302200D02*
X159422495Y-101349819D01*
X159422495Y-101349819D02*
X159184400Y-101349819D01*
X159184400Y-101349819D02*
X159089162Y-101302200D01*
X159089162Y-101302200D02*
X159041543Y-101206961D01*
X159041543Y-101206961D02*
X159041543Y-101111723D01*
X159041543Y-101111723D02*
X159089162Y-101016485D01*
X159089162Y-101016485D02*
X159184400Y-100968866D01*
X159184400Y-100968866D02*
X159422495Y-100968866D01*
X159422495Y-100968866D02*
X159517733Y-100921247D01*
X160422495Y-101349819D02*
X160422495Y-100349819D01*
X160422495Y-101302200D02*
X160327257Y-101349819D01*
X160327257Y-101349819D02*
X160136781Y-101349819D01*
X160136781Y-101349819D02*
X160041543Y-101302200D01*
X160041543Y-101302200D02*
X159993924Y-101254580D01*
X159993924Y-101254580D02*
X159946305Y-101159342D01*
X159946305Y-101159342D02*
X159946305Y-100873628D01*
X159946305Y-100873628D02*
X159993924Y-100778390D01*
X159993924Y-100778390D02*
X160041543Y-100730771D01*
X160041543Y-100730771D02*
X160136781Y-100683152D01*
X160136781Y-100683152D02*
X160327257Y-100683152D01*
X160327257Y-100683152D02*
X160422495Y-100730771D01*
X161041543Y-101349819D02*
X160946305Y-101302200D01*
X160946305Y-101302200D02*
X160898686Y-101254580D01*
X160898686Y-101254580D02*
X160851067Y-101159342D01*
X160851067Y-101159342D02*
X160851067Y-100873628D01*
X160851067Y-100873628D02*
X160898686Y-100778390D01*
X160898686Y-100778390D02*
X160946305Y-100730771D01*
X160946305Y-100730771D02*
X161041543Y-100683152D01*
X161041543Y-100683152D02*
X161184400Y-100683152D01*
X161184400Y-100683152D02*
X161279638Y-100730771D01*
X161279638Y-100730771D02*
X161327257Y-100778390D01*
X161327257Y-100778390D02*
X161374876Y-100873628D01*
X161374876Y-100873628D02*
X161374876Y-101159342D01*
X161374876Y-101159342D02*
X161327257Y-101254580D01*
X161327257Y-101254580D02*
X161279638Y-101302200D01*
X161279638Y-101302200D02*
X161184400Y-101349819D01*
X161184400Y-101349819D02*
X161041543Y-101349819D01*
X162565353Y-101349819D02*
X162565353Y-100349819D01*
X162565353Y-100349819D02*
X163136781Y-101349819D01*
X163136781Y-101349819D02*
X163136781Y-100349819D01*
X163993924Y-101302200D02*
X163898686Y-101349819D01*
X163898686Y-101349819D02*
X163708210Y-101349819D01*
X163708210Y-101349819D02*
X163612972Y-101302200D01*
X163612972Y-101302200D02*
X163565353Y-101206961D01*
X163565353Y-101206961D02*
X163565353Y-100826009D01*
X163565353Y-100826009D02*
X163612972Y-100730771D01*
X163612972Y-100730771D02*
X163708210Y-100683152D01*
X163708210Y-100683152D02*
X163898686Y-100683152D01*
X163898686Y-100683152D02*
X163993924Y-100730771D01*
X163993924Y-100730771D02*
X164041543Y-100826009D01*
X164041543Y-100826009D02*
X164041543Y-100921247D01*
X164041543Y-100921247D02*
X163565353Y-101016485D01*
X164470115Y-101349819D02*
X164470115Y-100683152D01*
X164470115Y-100349819D02*
X164422496Y-100397438D01*
X164422496Y-100397438D02*
X164470115Y-100445057D01*
X164470115Y-100445057D02*
X164517734Y-100397438D01*
X164517734Y-100397438D02*
X164470115Y-100349819D01*
X164470115Y-100349819D02*
X164470115Y-100445057D01*
X164946305Y-101349819D02*
X164946305Y-100683152D01*
X164946305Y-100873628D02*
X164993924Y-100778390D01*
X164993924Y-100778390D02*
X165041543Y-100730771D01*
X165041543Y-100730771D02*
X165136781Y-100683152D01*
X165136781Y-100683152D02*
X165232019Y-100683152D01*
X165993924Y-101349819D02*
X165993924Y-100826009D01*
X165993924Y-100826009D02*
X165946305Y-100730771D01*
X165946305Y-100730771D02*
X165851067Y-100683152D01*
X165851067Y-100683152D02*
X165660591Y-100683152D01*
X165660591Y-100683152D02*
X165565353Y-100730771D01*
X165993924Y-101302200D02*
X165898686Y-101349819D01*
X165898686Y-101349819D02*
X165660591Y-101349819D01*
X165660591Y-101349819D02*
X165565353Y-101302200D01*
X165565353Y-101302200D02*
X165517734Y-101206961D01*
X165517734Y-101206961D02*
X165517734Y-101111723D01*
X165517734Y-101111723D02*
X165565353Y-101016485D01*
X165565353Y-101016485D02*
X165660591Y-100968866D01*
X165660591Y-100968866D02*
X165898686Y-100968866D01*
X165898686Y-100968866D02*
X165993924Y-100921247D01*
X164438095Y-65334819D02*
X164438095Y-64334819D01*
X164438095Y-64811009D02*
X165009523Y-64811009D01*
X165009523Y-65334819D02*
X165009523Y-64334819D01*
X166009523Y-65334819D02*
X165438095Y-65334819D01*
X165723809Y-65334819D02*
X165723809Y-64334819D01*
X165723809Y-64334819D02*
X165628571Y-64477676D01*
X165628571Y-64477676D02*
X165533333Y-64572914D01*
X165533333Y-64572914D02*
X165438095Y-64620533D01*
X124838095Y-65334819D02*
X124838095Y-64334819D01*
X124838095Y-64811009D02*
X125409523Y-64811009D01*
X125409523Y-65334819D02*
X125409523Y-64334819D01*
X126076190Y-64334819D02*
X126171428Y-64334819D01*
X126171428Y-64334819D02*
X126266666Y-64382438D01*
X126266666Y-64382438D02*
X126314285Y-64430057D01*
X126314285Y-64430057D02*
X126361904Y-64525295D01*
X126361904Y-64525295D02*
X126409523Y-64715771D01*
X126409523Y-64715771D02*
X126409523Y-64953866D01*
X126409523Y-64953866D02*
X126361904Y-65144342D01*
X126361904Y-65144342D02*
X126314285Y-65239580D01*
X126314285Y-65239580D02*
X126266666Y-65287200D01*
X126266666Y-65287200D02*
X126171428Y-65334819D01*
X126171428Y-65334819D02*
X126076190Y-65334819D01*
X126076190Y-65334819D02*
X125980952Y-65287200D01*
X125980952Y-65287200D02*
X125933333Y-65239580D01*
X125933333Y-65239580D02*
X125885714Y-65144342D01*
X125885714Y-65144342D02*
X125838095Y-64953866D01*
X125838095Y-64953866D02*
X125838095Y-64715771D01*
X125838095Y-64715771D02*
X125885714Y-64525295D01*
X125885714Y-64525295D02*
X125933333Y-64430057D01*
X125933333Y-64430057D02*
X125980952Y-64382438D01*
X125980952Y-64382438D02*
X126076190Y-64334819D01*
X164438095Y-126334819D02*
X164438095Y-125334819D01*
X164438095Y-125811009D02*
X165009523Y-125811009D01*
X165009523Y-126334819D02*
X165009523Y-125334819D01*
X165390476Y-125334819D02*
X166009523Y-125334819D01*
X166009523Y-125334819D02*
X165676190Y-125715771D01*
X165676190Y-125715771D02*
X165819047Y-125715771D01*
X165819047Y-125715771D02*
X165914285Y-125763390D01*
X165914285Y-125763390D02*
X165961904Y-125811009D01*
X165961904Y-125811009D02*
X166009523Y-125906247D01*
X166009523Y-125906247D02*
X166009523Y-126144342D01*
X166009523Y-126144342D02*
X165961904Y-126239580D01*
X165961904Y-126239580D02*
X165914285Y-126287200D01*
X165914285Y-126287200D02*
X165819047Y-126334819D01*
X165819047Y-126334819D02*
X165533333Y-126334819D01*
X165533333Y-126334819D02*
X165438095Y-126287200D01*
X165438095Y-126287200D02*
X165390476Y-126239580D01*
X124838095Y-126334819D02*
X124838095Y-125334819D01*
X124838095Y-125811009D02*
X125409523Y-125811009D01*
X125409523Y-126334819D02*
X125409523Y-125334819D01*
X125838095Y-125430057D02*
X125885714Y-125382438D01*
X125885714Y-125382438D02*
X125980952Y-125334819D01*
X125980952Y-125334819D02*
X126219047Y-125334819D01*
X126219047Y-125334819D02*
X126314285Y-125382438D01*
X126314285Y-125382438D02*
X126361904Y-125430057D01*
X126361904Y-125430057D02*
X126409523Y-125525295D01*
X126409523Y-125525295D02*
X126409523Y-125620533D01*
X126409523Y-125620533D02*
X126361904Y-125763390D01*
X126361904Y-125763390D02*
X125790476Y-126334819D01*
X125790476Y-126334819D02*
X126409523Y-126334819D01*
X138190476Y-62642295D02*
X138647619Y-62642295D01*
X138419047Y-63442295D02*
X138419047Y-62642295D01*
X138914286Y-63442295D02*
X138914286Y-62642295D01*
X138914286Y-62642295D02*
X139219048Y-62642295D01*
X139219048Y-62642295D02*
X139295238Y-62680390D01*
X139295238Y-62680390D02*
X139333333Y-62718485D01*
X139333333Y-62718485D02*
X139371429Y-62794676D01*
X139371429Y-62794676D02*
X139371429Y-62908961D01*
X139371429Y-62908961D02*
X139333333Y-62985152D01*
X139333333Y-62985152D02*
X139295238Y-63023247D01*
X139295238Y-63023247D02*
X139219048Y-63061342D01*
X139219048Y-63061342D02*
X138914286Y-63061342D01*
X140133333Y-63442295D02*
X139676190Y-63442295D01*
X139904762Y-63442295D02*
X139904762Y-62642295D01*
X139904762Y-62642295D02*
X139828571Y-62756580D01*
X139828571Y-62756580D02*
X139752381Y-62832771D01*
X139752381Y-62832771D02*
X139676190Y-62870866D01*
X155523809Y-96718485D02*
X155447619Y-96680390D01*
X155447619Y-96680390D02*
X155371428Y-96604200D01*
X155371428Y-96604200D02*
X155257142Y-96489914D01*
X155257142Y-96489914D02*
X155180952Y-96451819D01*
X155180952Y-96451819D02*
X155104761Y-96451819D01*
X155142857Y-96642295D02*
X155066666Y-96604200D01*
X155066666Y-96604200D02*
X154990476Y-96528009D01*
X154990476Y-96528009D02*
X154952380Y-96375628D01*
X154952380Y-96375628D02*
X154952380Y-96108961D01*
X154952380Y-96108961D02*
X154990476Y-95956580D01*
X154990476Y-95956580D02*
X155066666Y-95880390D01*
X155066666Y-95880390D02*
X155142857Y-95842295D01*
X155142857Y-95842295D02*
X155295238Y-95842295D01*
X155295238Y-95842295D02*
X155371428Y-95880390D01*
X155371428Y-95880390D02*
X155447619Y-95956580D01*
X155447619Y-95956580D02*
X155485714Y-96108961D01*
X155485714Y-96108961D02*
X155485714Y-96375628D01*
X155485714Y-96375628D02*
X155447619Y-96528009D01*
X155447619Y-96528009D02*
X155371428Y-96604200D01*
X155371428Y-96604200D02*
X155295238Y-96642295D01*
X155295238Y-96642295D02*
X155142857Y-96642295D01*
X156247618Y-96642295D02*
X155790475Y-96642295D01*
X156019047Y-96642295D02*
X156019047Y-95842295D01*
X156019047Y-95842295D02*
X155942856Y-95956580D01*
X155942856Y-95956580D02*
X155866666Y-96032771D01*
X155866666Y-96032771D02*
X155790475Y-96070866D01*
X159590476Y-66642295D02*
X159590476Y-67289914D01*
X159590476Y-67289914D02*
X159628571Y-67366104D01*
X159628571Y-67366104D02*
X159666666Y-67404200D01*
X159666666Y-67404200D02*
X159742857Y-67442295D01*
X159742857Y-67442295D02*
X159895238Y-67442295D01*
X159895238Y-67442295D02*
X159971428Y-67404200D01*
X159971428Y-67404200D02*
X160009523Y-67366104D01*
X160009523Y-67366104D02*
X160047619Y-67289914D01*
X160047619Y-67289914D02*
X160047619Y-66642295D01*
X160771428Y-66908961D02*
X160771428Y-67442295D01*
X160580952Y-66604200D02*
X160390475Y-67175628D01*
X160390475Y-67175628D02*
X160885714Y-67175628D01*
X138190476Y-127442295D02*
X138647619Y-127442295D01*
X138419047Y-128242295D02*
X138419047Y-127442295D01*
X138914286Y-128242295D02*
X138914286Y-127442295D01*
X138914286Y-127442295D02*
X139219048Y-127442295D01*
X139219048Y-127442295D02*
X139295238Y-127480390D01*
X139295238Y-127480390D02*
X139333333Y-127518485D01*
X139333333Y-127518485D02*
X139371429Y-127594676D01*
X139371429Y-127594676D02*
X139371429Y-127708961D01*
X139371429Y-127708961D02*
X139333333Y-127785152D01*
X139333333Y-127785152D02*
X139295238Y-127823247D01*
X139295238Y-127823247D02*
X139219048Y-127861342D01*
X139219048Y-127861342D02*
X138914286Y-127861342D01*
X139638095Y-127442295D02*
X140133333Y-127442295D01*
X140133333Y-127442295D02*
X139866667Y-127747057D01*
X139866667Y-127747057D02*
X139980952Y-127747057D01*
X139980952Y-127747057D02*
X140057143Y-127785152D01*
X140057143Y-127785152D02*
X140095238Y-127823247D01*
X140095238Y-127823247D02*
X140133333Y-127899438D01*
X140133333Y-127899438D02*
X140133333Y-128089914D01*
X140133333Y-128089914D02*
X140095238Y-128166104D01*
X140095238Y-128166104D02*
X140057143Y-128204200D01*
X140057143Y-128204200D02*
X139980952Y-128242295D01*
X139980952Y-128242295D02*
X139752381Y-128242295D01*
X139752381Y-128242295D02*
X139676190Y-128204200D01*
X139676190Y-128204200D02*
X139638095Y-128166104D01*
X148190476Y-62642295D02*
X148647619Y-62642295D01*
X148419047Y-63442295D02*
X148419047Y-62642295D01*
X148914286Y-63442295D02*
X148914286Y-62642295D01*
X148914286Y-62642295D02*
X149219048Y-62642295D01*
X149219048Y-62642295D02*
X149295238Y-62680390D01*
X149295238Y-62680390D02*
X149333333Y-62718485D01*
X149333333Y-62718485D02*
X149371429Y-62794676D01*
X149371429Y-62794676D02*
X149371429Y-62908961D01*
X149371429Y-62908961D02*
X149333333Y-62985152D01*
X149333333Y-62985152D02*
X149295238Y-63023247D01*
X149295238Y-63023247D02*
X149219048Y-63061342D01*
X149219048Y-63061342D02*
X148914286Y-63061342D01*
X149676190Y-62718485D02*
X149714286Y-62680390D01*
X149714286Y-62680390D02*
X149790476Y-62642295D01*
X149790476Y-62642295D02*
X149980952Y-62642295D01*
X149980952Y-62642295D02*
X150057143Y-62680390D01*
X150057143Y-62680390D02*
X150095238Y-62718485D01*
X150095238Y-62718485D02*
X150133333Y-62794676D01*
X150133333Y-62794676D02*
X150133333Y-62870866D01*
X150133333Y-62870866D02*
X150095238Y-62985152D01*
X150095238Y-62985152D02*
X149638095Y-63442295D01*
X149638095Y-63442295D02*
X150133333Y-63442295D01*
X148190476Y-127442295D02*
X148647619Y-127442295D01*
X148419047Y-128242295D02*
X148419047Y-127442295D01*
X148914286Y-128242295D02*
X148914286Y-127442295D01*
X148914286Y-127442295D02*
X149219048Y-127442295D01*
X149219048Y-127442295D02*
X149295238Y-127480390D01*
X149295238Y-127480390D02*
X149333333Y-127518485D01*
X149333333Y-127518485D02*
X149371429Y-127594676D01*
X149371429Y-127594676D02*
X149371429Y-127708961D01*
X149371429Y-127708961D02*
X149333333Y-127785152D01*
X149333333Y-127785152D02*
X149295238Y-127823247D01*
X149295238Y-127823247D02*
X149219048Y-127861342D01*
X149219048Y-127861342D02*
X148914286Y-127861342D01*
X150057143Y-127708961D02*
X150057143Y-128242295D01*
X149866667Y-127404200D02*
X149676190Y-127975628D01*
X149676190Y-127975628D02*
X150171429Y-127975628D01*
X128412976Y-123242295D02*
X128412976Y-123889914D01*
X128412976Y-123889914D02*
X128451071Y-123966104D01*
X128451071Y-123966104D02*
X128489166Y-124004200D01*
X128489166Y-124004200D02*
X128565357Y-124042295D01*
X128565357Y-124042295D02*
X128717738Y-124042295D01*
X128717738Y-124042295D02*
X128793928Y-124004200D01*
X128793928Y-124004200D02*
X128832023Y-123966104D01*
X128832023Y-123966104D02*
X128870119Y-123889914D01*
X128870119Y-123889914D02*
X128870119Y-123242295D01*
X129670118Y-124042295D02*
X129212975Y-124042295D01*
X129441547Y-124042295D02*
X129441547Y-123242295D01*
X129441547Y-123242295D02*
X129365356Y-123356580D01*
X129365356Y-123356580D02*
X129289166Y-123432771D01*
X129289166Y-123432771D02*
X129212975Y-123470866D01*
X167590476Y-93242295D02*
X168047619Y-93242295D01*
X167819047Y-94042295D02*
X167819047Y-93242295D01*
X168314286Y-94042295D02*
X168314286Y-93242295D01*
X168314286Y-93242295D02*
X168619048Y-93242295D01*
X168619048Y-93242295D02*
X168695238Y-93280390D01*
X168695238Y-93280390D02*
X168733333Y-93318485D01*
X168733333Y-93318485D02*
X168771429Y-93394676D01*
X168771429Y-93394676D02*
X168771429Y-93508961D01*
X168771429Y-93508961D02*
X168733333Y-93585152D01*
X168733333Y-93585152D02*
X168695238Y-93623247D01*
X168695238Y-93623247D02*
X168619048Y-93661342D01*
X168619048Y-93661342D02*
X168314286Y-93661342D01*
X169495238Y-93242295D02*
X169114286Y-93242295D01*
X169114286Y-93242295D02*
X169076190Y-93623247D01*
X169076190Y-93623247D02*
X169114286Y-93585152D01*
X169114286Y-93585152D02*
X169190476Y-93547057D01*
X169190476Y-93547057D02*
X169380952Y-93547057D01*
X169380952Y-93547057D02*
X169457143Y-93585152D01*
X169457143Y-93585152D02*
X169495238Y-93623247D01*
X169495238Y-93623247D02*
X169533333Y-93699438D01*
X169533333Y-93699438D02*
X169533333Y-93889914D01*
X169533333Y-93889914D02*
X169495238Y-93966104D01*
X169495238Y-93966104D02*
X169457143Y-94004200D01*
X169457143Y-94004200D02*
X169380952Y-94042295D01*
X169380952Y-94042295D02*
X169190476Y-94042295D01*
X169190476Y-94042295D02*
X169114286Y-94004200D01*
X169114286Y-94004200D02*
X169076190Y-93966104D01*
X159352381Y-123842295D02*
X159352381Y-123042295D01*
X159352381Y-123042295D02*
X159619047Y-123613723D01*
X159619047Y-123613723D02*
X159885714Y-123042295D01*
X159885714Y-123042295D02*
X159885714Y-123842295D01*
X160685714Y-123842295D02*
X160228571Y-123842295D01*
X160457143Y-123842295D02*
X160457143Y-123042295D01*
X160457143Y-123042295D02*
X160380952Y-123156580D01*
X160380952Y-123156580D02*
X160304762Y-123232771D01*
X160304762Y-123232771D02*
X160228571Y-123270866D01*
X167590476Y-103442295D02*
X168047619Y-103442295D01*
X167819047Y-104242295D02*
X167819047Y-103442295D01*
X168314286Y-104242295D02*
X168314286Y-103442295D01*
X168314286Y-103442295D02*
X168619048Y-103442295D01*
X168619048Y-103442295D02*
X168695238Y-103480390D01*
X168695238Y-103480390D02*
X168733333Y-103518485D01*
X168733333Y-103518485D02*
X168771429Y-103594676D01*
X168771429Y-103594676D02*
X168771429Y-103708961D01*
X168771429Y-103708961D02*
X168733333Y-103785152D01*
X168733333Y-103785152D02*
X168695238Y-103823247D01*
X168695238Y-103823247D02*
X168619048Y-103861342D01*
X168619048Y-103861342D02*
X168314286Y-103861342D01*
X169457143Y-103442295D02*
X169304762Y-103442295D01*
X169304762Y-103442295D02*
X169228571Y-103480390D01*
X169228571Y-103480390D02*
X169190476Y-103518485D01*
X169190476Y-103518485D02*
X169114286Y-103632771D01*
X169114286Y-103632771D02*
X169076190Y-103785152D01*
X169076190Y-103785152D02*
X169076190Y-104089914D01*
X169076190Y-104089914D02*
X169114286Y-104166104D01*
X169114286Y-104166104D02*
X169152381Y-104204200D01*
X169152381Y-104204200D02*
X169228571Y-104242295D01*
X169228571Y-104242295D02*
X169380952Y-104242295D01*
X169380952Y-104242295D02*
X169457143Y-104204200D01*
X169457143Y-104204200D02*
X169495238Y-104166104D01*
X169495238Y-104166104D02*
X169533333Y-104089914D01*
X169533333Y-104089914D02*
X169533333Y-103899438D01*
X169533333Y-103899438D02*
X169495238Y-103823247D01*
X169495238Y-103823247D02*
X169457143Y-103785152D01*
X169457143Y-103785152D02*
X169380952Y-103747057D01*
X169380952Y-103747057D02*
X169228571Y-103747057D01*
X169228571Y-103747057D02*
X169152381Y-103785152D01*
X169152381Y-103785152D02*
X169114286Y-103823247D01*
X169114286Y-103823247D02*
X169076190Y-103899438D01*
D11*
%TO.C,TP1*%
X137500000Y-63980000D02*
X140900000Y-63980000D01*
X137500000Y-67380000D02*
X137500000Y-63980000D01*
X140900000Y-63980000D02*
X140900000Y-67380000D01*
X140900000Y-67380000D02*
X137500000Y-67380000D01*
D12*
%TO.C,Q1*%
X150590000Y-90580000D02*
X161130000Y-90580000D01*
X150590000Y-95280000D02*
X150590000Y-90580000D01*
X161130000Y-90580000D02*
X161130000Y-95280000D01*
X161130000Y-95280000D02*
X150590000Y-95280000D01*
D13*
X150110000Y-93480000D02*
G75*
G02*
X149910000Y-93480000I-100000J0D01*
G01*
X149910000Y-93480000D02*
G75*
G02*
X150110000Y-93480000I100000J0D01*
G01*
D14*
%TO.C,U4*%
X150130000Y-69350000D02*
X150130000Y-68080000D01*
X150130000Y-84740000D02*
X150130000Y-71740000D01*
X150130000Y-87130000D02*
X150130000Y-88400000D01*
X150130000Y-88400000D02*
X170450000Y-88400000D01*
X170450000Y-68080000D02*
X150130000Y-68080000D01*
X170450000Y-69350000D02*
X170450000Y-68080000D01*
X170450000Y-84740000D02*
X170450000Y-71740000D01*
X170450000Y-87130000D02*
X170450000Y-88400000D01*
D13*
X149661800Y-85860000D02*
G75*
G02*
X149461800Y-85860000I-100000J0D01*
G01*
X149461800Y-85860000D02*
G75*
G02*
X149661800Y-85860000I100000J0D01*
G01*
D11*
%TO.C,TP3*%
X137500000Y-123380000D02*
X140900000Y-123380000D01*
X137500000Y-126780000D02*
X137500000Y-123380000D01*
X140900000Y-123380000D02*
X140900000Y-126780000D01*
X140900000Y-126780000D02*
X137500000Y-126780000D01*
%TO.C,TP2*%
X147500000Y-63980000D02*
X150900000Y-63980000D01*
X147500000Y-67380000D02*
X147500000Y-63980000D01*
X150900000Y-63980000D02*
X150900000Y-67380000D01*
X150900000Y-67380000D02*
X147500000Y-67380000D01*
%TO.C,TP4*%
X147500000Y-123380000D02*
X150900000Y-123380000D01*
X147500000Y-126780000D02*
X147500000Y-123380000D01*
X150900000Y-123380000D02*
X150900000Y-126780000D01*
X150900000Y-126780000D02*
X147500000Y-126780000D01*
D13*
%TO.C,U1*%
X119810000Y-75520000D02*
G75*
G02*
X119610000Y-75520000I-100000J0D01*
G01*
X119610000Y-75520000D02*
G75*
G02*
X119810000Y-75520000I100000J0D01*
G01*
D14*
X148260000Y-122530000D02*
X120360000Y-122530000D01*
X148260000Y-68130000D02*
X148260000Y-122530000D01*
X120360000Y-122530000D02*
X120360000Y-68130000D01*
X120360000Y-68130000D02*
X148260000Y-68130000D01*
D11*
%TO.C,TP5*%
X166900000Y-89180000D02*
X170300000Y-89180000D01*
X166900000Y-92580000D02*
X166900000Y-89180000D01*
X170300000Y-89180000D02*
X170300000Y-92580000D01*
X170300000Y-92580000D02*
X166900000Y-92580000D01*
D12*
%TO.C,M1*%
X171000000Y-122678800D02*
X171000000Y-107928800D01*
X149000000Y-122678800D02*
X171000000Y-122678800D01*
X149000000Y-107928800D02*
X171000000Y-107928800D01*
X149000000Y-107928800D02*
X149000000Y-122678800D01*
D11*
%TO.C,TP6*%
X170300000Y-102580000D02*
X166900000Y-102580000D01*
X170300000Y-99180000D02*
X170300000Y-102580000D01*
X166900000Y-102580000D02*
X166900000Y-99180000D01*
X166900000Y-99180000D02*
X170300000Y-99180000D01*
%TD*%
M02*
